<svg width="390" height="169" viewBox="0 0 390 169" fill="none" xmlns="http://www.w3.org/2000/svg">
<path d="M187.273 7C204.378 7 217.724 12.5288 227.309 23.5865C236.894 34.6442 241.686 50.1987 241.686 70.25V104.75C241.686 125.391 236.894 141.093 227.309 151.856C217.724 162.619 204.378 168 187.273 168V151.192C199.217 151.192 208.139 147.064 214.037 138.808C220.083 130.404 223.106 118.609 223.106 103.423V71.5769C223.106 64.5 222.369 58.0865 220.894 52.3365C219.419 46.4391 217.134 41.4263 214.037 37.2981C211.088 33.0224 207.327 29.7051 202.756 27.3462C198.332 24.9872 193.171 23.8077 187.273 23.8077C181.227 23.8077 175.992 24.9872 171.568 27.3462L187.273 7Z" fill="#175DF1"/>
<path d="M85.2346 10.0962V118.462V135.712V164.904H66.6543V135.712V118.462V18.0577H64L85.2346 10.0962Z" fill="#175DF1"/>
<path d="M356.111 10.0962V118.462V135.712V164.904H337.531V135.712V118.462V18.0577H334.876L356.111 10.0962Z" fill="#175DF1"/>
<path d="M77.7275 135.724H5.86768V109.996L60.2061 9.74739L77.7275 17.7318H75.066L21.8365 115.763V118.424H77.7275V135.724Z" fill="#C57CE0"/>
<path d="M144.11 70.0741C144.11 49.9652 148.916 34.366 158.526 23.2765C168.137 12.1871 181.519 6.64233 198.67 6.64233V23.4983C192.608 23.4983 187.359 24.6812 182.923 27.047C178.487 29.4127 174.717 32.7396 171.612 37.0275C168.655 41.1676 166.437 46.1948 164.958 52.1092C163.48 57.8757 162.74 64.3076 162.74 71.4049V103.343C162.74 118.572 165.698 130.401 171.612 138.829C177.674 147.109 186.694 151.249 198.67 151.249V168.105C181.519 168.105 168.137 162.708 158.526 151.914C148.916 141.121 144.11 125.374 144.11 104.673V70.0741Z" fill="#C57CE0"/>
<path d="M277.473 135.724V109.996L331.812 9.74739L346.672 17.7318L293.442 115.763V118.424V121.5L277.473 135.724Z" fill="#C57CE0"/>
<path d="M54.3384 10.1051H90.4901V118.782H114.443V136.081H90.4901V165.358H71.8598V136.081H0V110.354L54.3384 10.1051ZM15.9688 116.12V118.782H71.8598V18.0895H69.1983L15.9688 116.12Z" fill="white"/>
<path d="M138.242 70.4318C138.242 50.3229 143.048 34.7237 152.659 23.6342C162.27 12.5447 175.651 7 192.803 7C209.954 7 223.336 12.5447 232.947 23.6342C242.557 34.7237 247.363 50.3229 247.363 70.4318V105.031C247.363 125.731 242.557 141.478 232.947 152.272C223.336 163.066 209.954 168.463 192.803 168.463C175.651 168.463 162.27 163.066 152.659 152.272C143.048 141.478 138.242 125.731 138.242 105.031V70.4318ZM192.803 151.607C204.779 151.607 213.725 147.467 219.639 139.187C225.701 130.759 228.733 118.93 228.733 103.7V71.7625C228.733 64.6653 227.993 58.2334 226.515 52.4669C225.036 46.5525 222.744 41.5252 219.639 37.3852C216.682 33.0972 212.912 29.7704 208.328 27.4046C203.892 25.0389 198.717 23.856 192.803 23.856C186.74 23.856 181.491 25.0389 177.056 27.4046C172.62 29.7704 168.849 33.0972 165.744 37.3852C162.787 41.5252 160.569 46.5525 159.091 52.4669C157.612 58.2334 156.873 64.6653 156.873 71.7625V103.7C156.873 118.93 159.83 130.759 165.744 139.187C171.807 147.467 180.826 151.607 192.803 151.607ZM178.608 87.7314C178.608 83.887 180.013 80.5602 182.822 77.7509C185.631 74.9415 188.958 73.5368 192.803 73.5368C196.647 73.5368 199.974 74.9415 202.783 77.7509C205.592 80.5602 206.997 83.887 206.997 87.7314C206.997 91.5757 205.592 94.9026 202.783 97.7119C199.974 100.521 196.647 101.926 192.803 101.926C188.958 101.926 185.631 100.521 182.822 97.7119C180.013 94.9026 178.608 91.5757 178.608 87.7314Z" fill="white"/>
<path d="M325.944 10.1051H362.096V118.782H386.049V136.081H362.096V165.358H343.465V136.081H271.605V110.354L325.944 10.1051ZM287.574 116.12V118.782H343.465V18.0895H340.804L287.574 116.12Z" fill="white"/>
<rect x="216" y="115" width="39" height="3" fill="#252930"/>
<rect x="216" y="94" width="21" height="5" fill="#252930"/>
<rect x="220" y="89" width="6" height="5" fill="#252930"/>
<rect x="14" y="68" width="39" height="4" fill="#252930"/>
<rect x="264" y="125" width="39" height="5" fill="#252930"/>
<rect x="237" y="45" width="13" height="4" fill="white"/>
<rect x="237" y="67" width="17" height="3" fill="white"/>
<rect x="206" y="157" width="28" height="2" fill="white"/>
<rect x="84" y="27" width="13" height="3" fill="white"/>
<rect x="83" y="158" width="13" height="3" fill="white"/>
<rect x="84" y="74" width="13" height="8" fill="white"/>
<rect x="141" y="146" width="13" height="8" fill="#252930"/>
<rect x="150" y="152" width="21" height="5" fill="#252930"/>
<rect x="222" y="152" width="21" height="5" fill="white"/>
<rect x="241" y="160" width="7" height="3" fill="white"/>
<rect x="84" y="82" width="10" height="4" fill="white"/>
<rect x="79" y="161" width="21" height="5" fill="#252930"/>
<rect x="372" y="39" width="5" height="4" fill="white"/>
<rect x="366" y="96" width="7" height="3" fill="white"/>
<rect x="252" y="39" width="5" height="4" fill="white"/>
<rect x="298" y="140" width="5" height="4" fill="white"/>
<rect x="257" y="108" width="5" height="4" fill="#175DF1"/>
<rect x="325" y="157" width="3" height="3" fill="#175DF1"/>
<rect x="374" y="66" width="5" height="4" fill="#175DF1"/>
<rect x="100" y="34" width="5" height="4" fill="white"/>
<rect x="41" width="7" height="7" fill="white"/>
<rect x="68" y="60" width="8" height="5" fill="#175DF1"/>
<rect x="62" y="94" width="8" height="4" fill="#175DF1"/>
<rect x="220" y="73" width="5" height="4" fill="#175DF1"/>
<rect x="32" y="90" width="6" height="3" fill="#252930"/>
<rect x="64" y="55" width="14" height="5" fill="#252930"/>
<rect x="22" y="116" width="53" height="3" fill="#252930"/>
<rect x="132" y="63" width="12" height="11" fill="#252930"/>
<rect x="304" y="30" width="23" height="4" fill="#252930"/>
<rect x="295" y="33" width="23" height="4" fill="#252930"/>
<rect x="382" y="125" width="8" height="12" fill="#252930"/>
<rect x="298" y="81" width="18" height="6" fill="#252930"/>
<rect x="337" y="59" width="12" height="4" fill="#252930"/>
<rect x="109" y="112" width="12" height="11" fill="#252930"/>
<rect x="30" y="93" width="6" height="5" fill="#C57CE0"/>
<rect x="28" y="140" width="6" height="5" fill="#C57CE0"/>
<rect x="37" y="146" width="3" height="3" fill="#C57CE0"/>
<rect x="98" y="162" width="7" height="6" fill="white"/>
<rect x="243" y="69" width="18" height="6" fill="white"/>
<rect x="202" y="81" width="7" height="3" fill="white"/>
<rect x="199" y="84" width="11" height="4" fill="#252930"/>
<rect x="177" y="95" width="12" height="3" fill="#252930"/>
<rect x="53" y="98" width="25" height="6" fill="#175DF1"/>
<rect x="328" y="108" width="25" height="3" fill="#175DF1"/>
<rect x="343" y="103" width="3" height="6" fill="#175DF1"/>
<rect x="217" y="67" width="8" height="6" fill="#175DF1"/>
<rect x="67" y="145" width="14" height="4" fill="#175DF1"/>
<rect x="223" y="99" width="30" height="6" fill="#175DF1"/>
<rect x="338" y="53" width="30" height="6" fill="#175DF1"/>
<rect x="333" y="149" width="8" height="6" fill="#175DF1"/>
<rect x="333" y="155" width="7" height="11" fill="#252930"/>
<rect x="220" y="131" width="7" height="6" fill="#175DF1"/>
<rect x="246" y="143" width="5" height="4" fill="#175DF1"/>
<rect x="45" y="63" width="15" height="5" fill="#C57CE0"/>
<rect x="20" y="85" width="15" height="5" fill="#C57CE0"/>
<rect x="177" y="50" width="6" height="6" fill="#C57CE0"/>
<rect x="321" y="82" width="6" height="3" fill="#C57CE0"/>
<rect x="301" y="110" width="4" height="2" fill="#C57CE0"/>
<rect x="317" y="63" width="8" height="4" fill="#C57CE0"/>
<rect x="316" y="66" width="6" height="3" fill="#C57CE0"/>
<rect x="172" y="110" width="6" height="6" fill="#C57CE0"/>
<rect x="195" y="31" width="4" height="4" fill="#C57CE0"/>
<rect x="129" y="70" width="6" height="4" fill="white"/>
<rect x="201" y="69" width="3" height="3" fill="white"/>
<rect x="190" y="91" width="3" height="3" fill="#252930"/>
<rect x="153" y="44" width="22" height="6" fill="#C57CE0"/>
<rect x="159" y="95" width="11" height="8" fill="#C57CE0"/>
<rect x="286" y="113" width="11" height="3" fill="#C57CE0"/>
<rect x="294" y="89" width="11" height="4" fill="#C57CE0"/>
<rect x="298" y="87" width="10" height="2" fill="#C57CE0"/>
<rect x="158" y="103" width="9" height="5" fill="#C57CE0"/>
<rect x="50" y="57" width="5" height="3" fill="#C57CE0"/>
<rect x="60" y="155" width="7" height="6" fill="#175DF1"/>
<rect x="55" y="150" width="5" height="5" fill="#175DF1"/>
<rect x="303" y="27" width="5" height="4" fill="white"/>
</svg>
