<svg width="166" height="175" viewBox="0 0 166 175" fill="none" xmlns="http://www.w3.org/2000/svg">
<path d="M21.218 0H19.9699V174.838H21.218V0Z" fill="url(#paint0_radial)" fill-opacity="0.23"/>
<path d="M83.6241 0H82.3759V174.838H83.6241V0Z" fill="url(#paint1_radial)" fill-opacity="0.23"/>
<path d="M146.03 0H144.782V174.838H146.03V0Z" fill="url(#paint2_radial)" fill-opacity="0.23"/>
<path d="M52.4211 0H51.1729V174.838H52.4211V0Z" fill="url(#paint3_radial)" fill-opacity="0.23"/>
<path d="M114.827 0H113.579V174.838H114.827V0Z" fill="url(#paint4_radial)" fill-opacity="0.23"/>
<path d="M0 152.49L7.78959e-08 153.805L166 153.805V152.49L0 152.49Z" fill="url(#paint5_radial)" fill-opacity="0.23"/>
<path d="M0 86.7616L7.78959e-08 88.0762L166 88.0762V86.7616L0 86.7616Z" fill="url(#paint6_radial)" fill-opacity="0.23"/>
<path d="M0 21.0331L7.78959e-08 22.3477L166 22.3477V21.0331L0 21.0331Z" fill="url(#paint7_radial)" fill-opacity="0.23"/>
<path d="M0 119.626L7.78959e-08 120.94L166 120.94V119.626L0 119.626Z" fill="url(#paint8_radial)" fill-opacity="0.23"/>
<path d="M0 53.8974L7.78959e-08 55.2119L166 55.2119V53.8973L0 53.8974Z" fill="url(#paint9_radial)" fill-opacity="0.23"/>
<g filter="url(#filter0_d)">
<path d="M64.483 93.7767L72.6678 117.158L108.994 64.0184L64.483 93.7767Z" fill="#5B90FF"/>
<path d="M73.5645 98.9722L72.7794 117.394L91.9519 100.271L73.5645 98.9722Z" fill="#5B90FF"/>
<path d="M117.872 55.043L46.2749 83.6965C44.2522 84.5056 44.3057 87.5389 46.3556 88.2679L64.8201 94.8391L106.864 66.2627L73.5645 98.9723L99.4879 119.692C102.184 121.847 106.095 120.398 106.916 116.938L120.928 57.9033C121.381 55.9994 119.614 54.3457 117.872 55.043Z" fill="#A0DBED"/>
</g>
<defs>
<filter id="filter0_d" x="28.7876" y="38.8802" width="108.212" height="97.8254" filterUnits="userSpaceOnUse" color-interpolation-filters="sRGB">
<feFlood flood-opacity="0" result="BackgroundImageFix"/>
<feColorMatrix in="SourceAlpha" type="matrix" values="0 0 0 0 0 0 0 0 0 0 0 0 0 0 0 0 0 0 127 0"/>
<feOffset/>
<feGaussianBlur stdDeviation="8"/>
<feColorMatrix type="matrix" values="0 0 0 0 0.360584 0 0 0 0 0.550743 0 0 0 0 0.952795 0 0 0 1 0"/>
<feBlend mode="normal" in2="BackgroundImageFix" result="effect1_dropShadow"/>
<feBlend mode="normal" in="SourceGraphic" in2="effect1_dropShadow" result="shape"/>
</filter>
<radialGradient id="paint0_radial" cx="0" cy="0" r="1" gradientUnits="userSpaceOnUse" gradientTransform="translate(83 87.4189) rotate(90) scale(87.4189 83)">
<stop stop-color="#C4C4C4"/>
<stop offset="1" stop-color="#C4C4C4" stop-opacity="0"/>
</radialGradient>
<radialGradient id="paint1_radial" cx="0" cy="0" r="1" gradientUnits="userSpaceOnUse" gradientTransform="translate(83 87.4189) rotate(90) scale(87.4189 83)">
<stop stop-color="#C4C4C4"/>
<stop offset="1" stop-color="#C4C4C4" stop-opacity="0"/>
</radialGradient>
<radialGradient id="paint2_radial" cx="0" cy="0" r="1" gradientUnits="userSpaceOnUse" gradientTransform="translate(83 87.4189) rotate(90) scale(87.4189 83)">
<stop stop-color="#C4C4C4"/>
<stop offset="1" stop-color="#C4C4C4" stop-opacity="0"/>
</radialGradient>
<radialGradient id="paint3_radial" cx="0" cy="0" r="1" gradientUnits="userSpaceOnUse" gradientTransform="translate(83 87.4189) rotate(90) scale(87.4189 83)">
<stop stop-color="#C4C4C4"/>
<stop offset="1" stop-color="#C4C4C4" stop-opacity="0"/>
</radialGradient>
<radialGradient id="paint4_radial" cx="0" cy="0" r="1" gradientUnits="userSpaceOnUse" gradientTransform="translate(83 87.4189) rotate(90) scale(87.4189 83)">
<stop stop-color="#C4C4C4"/>
<stop offset="1" stop-color="#C4C4C4" stop-opacity="0"/>
</radialGradient>
<radialGradient id="paint5_radial" cx="0" cy="0" r="1" gradientUnits="userSpaceOnUse" gradientTransform="translate(83 87.4189) rotate(90) scale(87.4189 83)">
<stop stop-color="#C4C4C4"/>
<stop offset="1" stop-color="#C4C4C4" stop-opacity="0"/>
</radialGradient>
<radialGradient id="paint6_radial" cx="0" cy="0" r="1" gradientUnits="userSpaceOnUse" gradientTransform="translate(83 87.4189) rotate(90) scale(87.4189 83)">
<stop stop-color="#C4C4C4"/>
<stop offset="1" stop-color="#C4C4C4" stop-opacity="0"/>
</radialGradient>
<radialGradient id="paint7_radial" cx="0" cy="0" r="1" gradientUnits="userSpaceOnUse" gradientTransform="translate(83 87.4189) rotate(90) scale(87.4189 83)">
<stop stop-color="#C4C4C4"/>
<stop offset="1" stop-color="#C4C4C4" stop-opacity="0"/>
</radialGradient>
<radialGradient id="paint8_radial" cx="0" cy="0" r="1" gradientUnits="userSpaceOnUse" gradientTransform="translate(83 87.4189) rotate(90) scale(87.4189 83)">
<stop stop-color="#C4C4C4"/>
<stop offset="1" stop-color="#C4C4C4" stop-opacity="0"/>
</radialGradient>
<radialGradient id="paint9_radial" cx="0" cy="0" r="1" gradientUnits="userSpaceOnUse" gradientTransform="translate(83 87.4189) rotate(90) scale(87.4189 83)">
<stop stop-color="#C4C4C4"/>
<stop offset="1" stop-color="#C4C4C4" stop-opacity="0"/>
</radialGradient>
</defs>
</svg>
