<svg width="166" height="175" viewBox="0 0 166 175" fill="none" xmlns="http://www.w3.org/2000/svg">
<path d="M21.218 0H19.9699V174.838H21.218V0Z" fill="url(#paint0_radial)" fill-opacity="0.23"/>
<path d="M83.6241 0H82.3759V174.838H83.6241V0Z" fill="url(#paint1_radial)" fill-opacity="0.23"/>
<path d="M146.03 0H144.782V174.838H146.03V0Z" fill="url(#paint2_radial)" fill-opacity="0.23"/>
<path d="M52.4211 0H51.1729V174.838H52.4211V0Z" fill="url(#paint3_radial)" fill-opacity="0.23"/>
<path d="M114.827 0H113.579V174.838H114.827V0Z" fill="url(#paint4_radial)" fill-opacity="0.23"/>
<path d="M0 152.49L7.78959e-08 153.805L166 153.805V152.49L0 152.49Z" fill="url(#paint5_radial)" fill-opacity="0.23"/>
<path d="M0 86.7616L7.78959e-08 88.0762L166 88.0762V86.7616L0 86.7616Z" fill="url(#paint6_radial)" fill-opacity="0.23"/>
<path d="M0 21.0331L7.78959e-08 22.3477L166 22.3477V21.0331L0 21.0331Z" fill="url(#paint7_radial)" fill-opacity="0.23"/>
<path d="M0 119.626L7.78959e-08 120.94L166 120.94V119.626L0 119.626Z" fill="url(#paint8_radial)" fill-opacity="0.23"/>
<path d="M0 53.8974L7.78959e-08 55.2119L166 55.2119V53.8973L0 53.8974Z" fill="url(#paint9_radial)" fill-opacity="0.23"/>
<g filter="url(#filter0_d)">
<path d="M109.266 70.2571V55.843C109.266 55.1111 108.933 54.4189 108.36 53.9639C107.788 53.5089 107.042 53.3351 106.324 53.5017L43.8628 67.9157C42.6709 68.1902 106.863 72.6594 106.863 72.6594C108.191 72.6594 109.266 71.5849 109.266 70.2571ZM121.598 82.2688H119.195L106.863 77.4641L85.2422 94.2805L106.863 111.097L119.195 106.292H121.598C122.943 106.292 124 105.235 124 103.89V84.6711C124 83.3256 122.943 82.2688 121.598 82.2688Z" fill="#A0DBED"/>
<path d="M119.195 70.2571C119.195 68.9116 118.138 67.8547 116.793 67.8547H44.4023C43.0569 67.8547 42 68.9116 42 70.2571V118.304C42 119.649 43.0569 120.706 44.4023 120.706H116.793C118.138 120.706 119.195 119.649 119.195 118.304V106.292H106.863C100.233 106.292 94.8516 100.911 94.8516 94.2805C94.8516 87.65 100.233 82.2688 106.863 82.2688H119.195V70.2571ZM104.461 94.2805C104.461 95.6073 105.537 96.6829 106.863 96.6829C108.19 96.6829 109.266 95.6073 109.266 94.2805C109.266 92.9538 108.19 91.8782 106.863 91.8782C105.537 91.8782 104.461 92.9538 104.461 94.2805Z" fill="url(#paint10_linear)"/>
</g>
<defs>
<filter id="filter0_d" x="26" y="30.0729" width="114" height="114" filterUnits="userSpaceOnUse" color-interpolation-filters="sRGB">
<feFlood flood-opacity="0" result="BackgroundImageFix"/>
<feColorMatrix in="SourceAlpha" type="matrix" values="0 0 0 0 0 0 0 0 0 0 0 0 0 0 0 0 0 0 127 0"/>
<feOffset/>
<feGaussianBlur stdDeviation="8"/>
<feColorMatrix type="matrix" values="0 0 0 0 0.55387 0 0 0 0 0.936267 0 0 0 0 0.918057 0 0 0 0.32 0"/>
<feBlend mode="normal" in2="BackgroundImageFix" result="effect1_dropShadow"/>
<feBlend mode="normal" in="SourceGraphic" in2="effect1_dropShadow" result="shape"/>
</filter>
<radialGradient id="paint0_radial" cx="0" cy="0" r="1" gradientUnits="userSpaceOnUse" gradientTransform="translate(83 87.4189) rotate(90) scale(87.4189 83)">
<stop stop-color="#C4C4C4"/>
<stop offset="1" stop-color="#C4C4C4" stop-opacity="0"/>
</radialGradient>
<radialGradient id="paint1_radial" cx="0" cy="0" r="1" gradientUnits="userSpaceOnUse" gradientTransform="translate(83 87.4189) rotate(90) scale(87.4189 83)">
<stop stop-color="#C4C4C4"/>
<stop offset="1" stop-color="#C4C4C4" stop-opacity="0"/>
</radialGradient>
<radialGradient id="paint2_radial" cx="0" cy="0" r="1" gradientUnits="userSpaceOnUse" gradientTransform="translate(83 87.4189) rotate(90) scale(87.4189 83)">
<stop stop-color="#C4C4C4"/>
<stop offset="1" stop-color="#C4C4C4" stop-opacity="0"/>
</radialGradient>
<radialGradient id="paint3_radial" cx="0" cy="0" r="1" gradientUnits="userSpaceOnUse" gradientTransform="translate(83 87.4189) rotate(90) scale(87.4189 83)">
<stop stop-color="#C4C4C4"/>
<stop offset="1" stop-color="#C4C4C4" stop-opacity="0"/>
</radialGradient>
<radialGradient id="paint4_radial" cx="0" cy="0" r="1" gradientUnits="userSpaceOnUse" gradientTransform="translate(83 87.4189) rotate(90) scale(87.4189 83)">
<stop stop-color="#C4C4C4"/>
<stop offset="1" stop-color="#C4C4C4" stop-opacity="0"/>
</radialGradient>
<radialGradient id="paint5_radial" cx="0" cy="0" r="1" gradientUnits="userSpaceOnUse" gradientTransform="translate(83 87.4189) rotate(90) scale(87.4189 83)">
<stop stop-color="#C4C4C4"/>
<stop offset="1" stop-color="#C4C4C4" stop-opacity="0"/>
</radialGradient>
<radialGradient id="paint6_radial" cx="0" cy="0" r="1" gradientUnits="userSpaceOnUse" gradientTransform="translate(83 87.4189) rotate(90) scale(87.4189 83)">
<stop stop-color="#C4C4C4"/>
<stop offset="1" stop-color="#C4C4C4" stop-opacity="0"/>
</radialGradient>
<radialGradient id="paint7_radial" cx="0" cy="0" r="1" gradientUnits="userSpaceOnUse" gradientTransform="translate(83 87.4189) rotate(90) scale(87.4189 83)">
<stop stop-color="#C4C4C4"/>
<stop offset="1" stop-color="#C4C4C4" stop-opacity="0"/>
</radialGradient>
<radialGradient id="paint8_radial" cx="0" cy="0" r="1" gradientUnits="userSpaceOnUse" gradientTransform="translate(83 87.4189) rotate(90) scale(87.4189 83)">
<stop stop-color="#C4C4C4"/>
<stop offset="1" stop-color="#C4C4C4" stop-opacity="0"/>
</radialGradient>
<radialGradient id="paint9_radial" cx="0" cy="0" r="1" gradientUnits="userSpaceOnUse" gradientTransform="translate(83 87.4189) rotate(90) scale(87.4189 83)">
<stop stop-color="#C4C4C4"/>
<stop offset="1" stop-color="#C4C4C4" stop-opacity="0"/>
</radialGradient>
<linearGradient id="paint10_linear" x1="80.5977" y1="120.706" x2="80.5977" y2="67.8547" gradientUnits="userSpaceOnUse">
<stop stop-color="#9B51E0"/>
<stop offset="1" stop-color="#C57CE0"/>
</linearGradient>
</defs>
</svg>
