<svg width="78" height="61" viewBox="0 0 78 61" fill="none" xmlns="http://www.w3.org/2000/svg">
<path d="M49.8495 29.6589C49.8495 30.6733 50.6303 31.4957 51.5933 31.4957C52.5565 31.4957 53.3372 30.6733 53.3372 29.6589C53.3372 28.6445 52.5565 27.8221 51.5933 27.8221C50.6303 27.8221 49.8495 28.6445 49.8495 29.6589Z" fill="#175DF1"/>
<path d="M68.7541 17.1805C68.5131 16.8262 68.0233 16.7966 67.7513 17.1249L66.8934 18.1607C66.6999 18.3942 66.6868 18.7341 66.8551 18.9885C69.2185 22.5621 70.7126 27.0154 70.7126 32.2882C70.7126 37.3395 69.3292 41.6941 67.0066 45.3155C64.8052 45.8495 62.5299 45.4887 60.5696 44.2837C58.5288 43.0291 57.0738 41.0127 56.4728 38.6055C56.3836 38.2481 56.036 38.0351 55.6971 38.1287C55.358 38.2226 55.1552 38.5884 55.2445 38.9457C55.9318 41.6984 57.5955 44.0044 59.9295 45.4391C61.498 46.4032 63.243 46.8961 65.0119 46.8961C65.3206 46.8961 65.6299 46.8758 65.9391 46.8457C60.3051 54.2694 50.511 58.1817 41.1205 58.1817C25.2798 58.1817 9.34414 46.1068 9.58298 26.0783C8.13854 25.8646 6.186 25.2997 4.79321 23.8329C2.31328 21.2208 2.54795 16.7383 2.54795 16.7383C2.54795 16.7383 2.65571 16.7322 2.8472 16.7322C3.85826 16.7322 7.19872 16.9071 9.28373 19.1031C10.232 20.1018 10.7833 20.8278 11.1025 21.4732C11.1935 21.657 11.3612 21.749 11.5291 21.749C11.6969 21.749 11.8646 21.657 11.9556 21.4732C12.2748 20.8278 12.8261 20.1018 13.7744 19.1031C15.8595 16.9068 19.2001 16.7322 20.2109 16.7322C20.4023 16.7322 20.5102 16.7383 20.5102 16.7383C20.5102 16.7383 20.745 21.2208 18.2649 23.8329C16.8743 25.2973 14.9258 25.8629 13.4819 26.0772C16.3451 30.8563 20.4785 34.7744 25.433 37.4791C25.5046 37.5182 25.5788 37.5361 25.6506 37.5361C25.9317 37.5361 26.1789 37.2641 26.1174 36.9375C25.8338 35.4324 25.6843 33.8706 25.6843 32.2813C25.6843 19.185 35.7643 8.56853 48.1984 8.56853C52.1782 8.56853 56.5909 9.92476 60.4482 12.5379C60.6878 12.7001 60.9987 12.6805 61.2134 12.4832L62.2015 11.5752C62.5196 11.2829 62.484 10.7526 62.1319 10.5067C60.4652 9.3431 58.6623 8.36275 56.7977 7.61905C53.9669 6.48981 50.9933 5.89294 48.1984 5.89294C40.9183 5.89294 34.1121 9.14127 29.2721 14.9871C25.1983 19.9075 23.0233 26.2952 23.1494 32.8224C23.1498 32.8486 23.1503 32.8747 23.1509 32.9007C21.063 31.3555 19.2017 29.5514 17.6211 27.54C18.4768 27.0967 19.3178 26.5074 20.0611 25.7247C23.2517 22.3642 23.0769 17.1718 23.0465 16.5909L22.9212 14.1988L20.6499 14.0668C20.6082 14.0646 20.4532 14.0566 20.2109 14.0566C18.6361 14.0566 14.6816 14.364 11.9781 17.2113C11.8202 17.3776 11.6708 17.5389 11.5291 17.6959C11.3873 17.5389 11.2379 17.3776 11.08 17.2113C8.37668 14.364 4.42204 14.0568 2.84734 14.0566C2.60461 14.0566 2.44978 14.0646 2.40798 14.0668L0.136896 14.1989L0.0116422 16.5909C-0.0187686 17.1718 -0.193596 22.3642 2.99703 25.7247C4.2161 27.0085 5.69748 27.772 7.07693 28.2242C7.24982 32.2032 8.03244 35.9987 9.4112 39.5351C10.9376 43.4503 13.167 46.9878 16.0377 50.0497C19.2657 53.4924 23.1481 56.1934 27.5771 58.0772C31.853 59.8958 36.5361 60.8572 41.1205 60.8572C49.053 60.8572 56.9552 58.2414 62.8008 53.6806C66.0258 51.1646 68.5611 48.1403 70.3365 44.6922C72.2716 40.9336 73.2528 36.7604 73.2528 32.2882C73.2528 28.2411 72.4545 24.4321 70.8801 20.9661C70.2772 19.6389 69.5669 18.3752 68.7541 17.1805Z" fill="#175DF1"/>
<path d="M69.6636 12.1212L72.53 8.52379C72.578 8.46339 72.6046 8.38705 72.6046 8.30821V5.46677C72.6046 5.18187 72.2885 5.02669 72.0812 5.20995L69.2148 7.74353C69.1427 7.80729 69.1011 7.90133 69.1011 8.00049V11.9056C69.1011 12.2188 69.4724 12.3611 69.6636 12.1212Z" fill="white"/>
<path d="M62.5179 14.6151L64.8314 17.0519C65.0956 17.33 65.5294 17.3102 65.7696 17.0087L67.7527 14.5198C67.8009 14.4592 67.8273 14.3829 67.8273 14.304V9.68969C67.8273 9.40464 67.5113 9.24946 67.3041 9.43271L62.5587 13.6269C62.2725 13.8799 62.2537 14.3369 62.5179 14.6151Z" fill="white"/>
<path d="M76.9453 0.910857L73.9923 3.52107C73.9202 3.58469 73.8785 3.67888 73.8785 3.77804V5.90985C73.8785 6.22298 74.2499 6.36544 74.4409 6.12543L77.8428 1.8561C78.3431 1.22808 77.5415 0.383901 76.9453 0.910857Z" fill="white"/>
</svg>
