<svg width="312" height="324" viewBox="0 0 312 324" fill="none" xmlns="http://www.w3.org/2000/svg">
<path d="M164.615 30.7239C184.901 30.7239 204.9 35.525 222.975 44.7348C241.05 53.9446 256.689 67.3015 268.613 83.7135C280.537 100.125 288.407 119.126 291.581 139.163C294.754 159.2 293.141 179.703 286.872 198.996L164.615 159.272L164.615 30.7239Z" fill="#A0DBED"/>
<path d="M287.045 199.076C280.769 218.391 270.011 235.947 255.65 250.308C241.289 264.668 223.734 275.427 204.419 281.702L164.65 159.308L287.045 199.076Z" fill="#C57CE0"/>
<path d="M204.339 281.529C185.045 287.798 164.542 289.412 144.506 286.238C124.469 283.065 105.468 275.194 89.0562 263.27L164.615 159.272L204.339 281.529Z" fill="#9B51E0"/>
<path d="M89.0067 263.422C67.0198 247.448 50.6545 224.923 42.2562 199.076C33.858 173.229 33.858 145.386 42.2562 119.539L164.651 159.307L89.0067 263.422Z" fill="#624BE9"/>
<path d="M42.2562 119.539C50.6545 93.6919 67.0198 71.1669 89.0068 55.1925L164.651 159.307L42.2562 119.539Z" fill="#422CE8"/>
<path d="M89.0067 55.1926C110.994 39.2181 137.473 30.6143 164.651 30.6143L164.651 159.307L89.0067 55.1926Z" fill="#5B90FF"/>
<path d="M255.017 91.6787L277.821 73.4658" stroke="#A0DBED" stroke-width="2"/>
<path d="M261.827 263.545L244.42 240.12" stroke="#C57CE0" stroke-width="2"/>
<path d="M279.228 55.803C279.307 54.7603 279.709 53.9443 280.435 53.355C281.16 52.7657 282.101 52.471 283.257 52.471C284.027 52.471 284.69 52.6127 285.246 52.896C285.812 53.168 286.237 53.542 286.521 54.018C286.815 54.494 286.963 55.0323 286.963 55.633C286.963 56.3357 286.759 56.942 286.351 57.452C285.954 57.962 285.433 58.2907 284.787 58.438V58.523C285.523 58.7043 286.107 59.0613 286.538 59.594C286.968 60.1267 287.184 60.8237 287.184 61.685C287.184 62.331 287.036 62.9147 286.742 63.436C286.447 63.946 286.005 64.3483 285.416 64.643C284.826 64.9377 284.118 65.085 283.291 65.085C282.089 65.085 281.103 64.7733 280.333 64.15C279.562 63.5153 279.131 62.62 279.041 61.464H280.537C280.616 62.144 280.894 62.6993 281.37 63.13C281.846 63.5607 282.48 63.776 283.274 63.776C284.067 63.776 284.668 63.572 285.076 63.164C285.495 62.7447 285.705 62.2063 285.705 61.549C285.705 60.699 285.421 60.087 284.855 59.713C284.288 59.339 283.432 59.152 282.288 59.152H281.897V57.86H282.305C283.347 57.8487 284.135 57.6787 284.668 57.35C285.2 57.01 285.467 56.4887 285.467 55.786C285.467 55.1853 285.268 54.7037 284.872 54.341C284.486 53.9783 283.931 53.797 283.206 53.797C282.503 53.797 281.936 53.9783 281.506 54.341C281.075 54.7037 280.82 55.191 280.741 55.803H279.228ZM289.272 58.727C289.272 56.7777 289.59 55.259 290.224 54.171C290.859 53.0717 291.97 52.522 293.556 52.522C295.132 52.522 296.237 53.0717 296.871 54.171C297.506 55.259 297.823 56.7777 297.823 58.727C297.823 60.7103 297.506 62.2517 296.871 63.351C296.237 64.4503 295.132 65 293.556 65C291.97 65 290.859 64.4503 290.224 63.351C289.59 62.2517 289.272 60.7103 289.272 58.727ZM296.293 58.727C296.293 57.741 296.225 56.908 296.089 56.228C295.965 55.5367 295.698 54.9813 295.29 54.562C294.894 54.1427 294.316 53.933 293.556 53.933C292.786 53.933 292.196 54.1427 291.788 54.562C291.392 54.9813 291.125 55.5367 290.989 56.228C290.865 56.908 290.802 57.741 290.802 58.727C290.802 59.747 290.865 60.6027 290.989 61.294C291.125 61.9853 291.392 62.5407 291.788 62.96C292.196 63.3793 292.786 63.589 293.556 63.589C294.316 63.589 294.894 63.3793 295.29 62.96C295.698 62.5407 295.965 61.9853 296.089 61.294C296.225 60.6027 296.293 59.747 296.293 58.727ZM299.607 55.48C299.607 54.7093 299.839 54.0973 300.304 53.644C300.769 53.1793 301.364 52.947 302.089 52.947C302.814 52.947 303.409 53.1793 303.874 53.644C304.339 54.0973 304.571 54.7093 304.571 55.48C304.571 56.262 304.339 56.8853 303.874 57.35C303.409 57.8033 302.814 58.03 302.089 58.03C301.364 58.03 300.769 57.8033 300.304 57.35C299.839 56.8853 299.607 56.262 299.607 55.48ZM309.535 53.134L302.65 65H301.12L308.005 53.134H309.535ZM302.089 53.899C301.704 53.899 301.398 54.035 301.171 54.307C300.956 54.5677 300.848 54.9587 300.848 55.48C300.848 56.0013 300.956 56.398 301.171 56.67C301.398 56.942 301.704 57.078 302.089 57.078C302.474 57.078 302.78 56.942 303.007 56.67C303.234 56.3867 303.347 55.99 303.347 55.48C303.347 54.9587 303.234 54.5677 303.007 54.307C302.78 54.035 302.474 53.899 302.089 53.899ZM306.118 62.654C306.118 61.872 306.35 61.2543 306.815 60.801C307.28 60.3363 307.875 60.104 308.6 60.104C309.325 60.104 309.915 60.3363 310.368 60.801C310.833 61.2543 311.065 61.872 311.065 62.654C311.065 63.4247 310.833 64.0423 310.368 64.507C309.915 64.9717 309.325 65.204 308.6 65.204C307.875 65.204 307.28 64.9773 306.815 64.524C306.35 64.0593 306.118 63.436 306.118 62.654ZM308.583 61.073C308.198 61.073 307.892 61.209 307.665 61.481C307.438 61.7417 307.325 62.1327 307.325 62.654C307.325 63.164 307.438 63.555 307.665 63.827C307.892 64.0877 308.198 64.218 308.583 64.218C308.968 64.218 309.274 64.0877 309.501 63.827C309.728 63.555 309.841 63.164 309.841 62.654C309.841 62.1327 309.728 61.7417 309.501 61.481C309.274 61.209 308.968 61.073 308.583 61.073Z" fill="white"/>
<path d="M93.1362 8.12V6.709H96.3322V19H94.7682V8.12H93.1362ZM98.9895 12.727C98.9895 10.7777 99.3069 9.259 99.9415 8.171C100.576 7.07167 101.687 6.522 103.274 6.522C104.849 6.522 105.954 7.07167 106.589 8.171C107.223 9.259 107.541 10.7777 107.541 12.727C107.541 14.7103 107.223 16.2517 106.589 17.351C105.954 18.4503 104.849 19 103.274 19C101.687 19 100.576 18.4503 99.9415 17.351C99.3069 16.2517 98.9895 14.7103 98.9895 12.727ZM106.011 12.727C106.011 11.741 105.943 10.908 105.807 10.228C105.682 9.53667 105.416 8.98133 105.008 8.562C104.611 8.14267 104.033 7.933 103.274 7.933C102.503 7.933 101.914 8.14267 101.506 8.562C101.109 8.98133 100.843 9.53667 100.707 10.228C100.582 10.908 100.52 11.741 100.52 12.727C100.52 13.747 100.582 14.6027 100.707 15.294C100.843 15.9853 101.109 16.5407 101.506 16.96C101.914 17.3793 102.503 17.589 103.274 17.589C104.033 17.589 104.611 17.3793 105.008 16.96C105.416 16.5407 105.682 15.9853 105.807 15.294C105.943 14.6027 106.011 13.747 106.011 12.727ZM109.324 9.48C109.324 8.70933 109.557 8.09733 110.021 7.644C110.486 7.17933 111.081 6.947 111.806 6.947C112.532 6.947 113.127 7.17933 113.591 7.644C114.056 8.09733 114.288 8.70933 114.288 9.48C114.288 10.262 114.056 10.8853 113.591 11.35C113.127 11.8033 112.532 12.03 111.806 12.03C111.081 12.03 110.486 11.8033 110.021 11.35C109.557 10.8853 109.324 10.262 109.324 9.48ZM119.252 7.134L112.367 19H110.837L117.722 7.134H119.252ZM111.806 7.899C111.421 7.899 111.115 8.035 110.888 8.307C110.673 8.56767 110.565 8.95867 110.565 9.48C110.565 10.0013 110.673 10.398 110.888 10.67C111.115 10.942 111.421 11.078 111.806 11.078C112.192 11.078 112.498 10.942 112.724 10.67C112.951 10.3867 113.064 9.99 113.064 9.48C113.064 8.95867 112.951 8.56767 112.724 8.307C112.498 8.035 112.192 7.899 111.806 7.899ZM115.835 16.654C115.835 15.872 116.068 15.2543 116.532 14.801C116.997 14.3363 117.592 14.104 118.317 14.104C119.043 14.104 119.632 14.3363 120.085 14.801C120.55 15.2543 120.782 15.872 120.782 16.654C120.782 17.4247 120.55 18.0423 120.085 18.507C119.632 18.9717 119.043 19.204 118.317 19.204C117.592 19.204 116.997 18.9773 116.532 18.524C116.068 18.0593 115.835 17.436 115.835 16.654ZM118.3 15.073C117.915 15.073 117.609 15.209 117.382 15.481C117.156 15.7417 117.042 16.1327 117.042 16.654C117.042 17.164 117.156 17.555 117.382 17.827C117.609 18.0877 117.915 18.218 118.3 18.218C118.686 18.218 118.992 18.0877 119.218 17.827C119.445 17.555 119.558 17.164 119.558 16.654C119.558 16.1327 119.445 15.7417 119.218 15.481C118.992 15.209 118.686 15.073 118.3 15.073Z" fill="white"/>
<path d="M21.1362 61.12V59.709H24.3322V72H22.7682V61.12H21.1362ZM26.9895 65.727C26.9895 63.7777 27.3069 62.259 27.9415 61.171C28.5762 60.0717 29.6869 59.522 31.2735 59.522C32.8489 59.522 33.9539 60.0717 34.5885 61.171C35.2232 62.259 35.5405 63.7777 35.5405 65.727C35.5405 67.7103 35.2232 69.2517 34.5885 70.351C33.9539 71.4503 32.8489 72 31.2735 72C29.6869 72 28.5762 71.4503 27.9415 70.351C27.3069 69.2517 26.9895 67.7103 26.9895 65.727ZM34.0105 65.727C34.0105 64.741 33.9425 63.908 33.8065 63.228C33.6819 62.5367 33.4155 61.9813 33.0075 61.562C32.6109 61.1427 32.0329 60.933 31.2735 60.933C30.5029 60.933 29.9135 61.1427 29.5055 61.562C29.1089 61.9813 28.8425 62.5367 28.7065 63.228C28.5819 63.908 28.5195 64.741 28.5195 65.727C28.5195 66.747 28.5819 67.6027 28.7065 68.294C28.8425 68.9853 29.1089 69.5407 29.5055 69.96C29.9135 70.3793 30.5029 70.589 31.2735 70.589C32.0329 70.589 32.6109 70.3793 33.0075 69.96C33.4155 69.5407 33.6819 68.9853 33.8065 68.294C33.9425 67.6027 34.0105 66.747 34.0105 65.727ZM37.3244 62.48C37.3244 61.7093 37.5567 61.0973 38.0214 60.644C38.486 60.1793 39.081 59.947 39.8064 59.947C40.5317 59.947 41.1267 60.1793 41.5914 60.644C42.056 61.0973 42.2884 61.7093 42.2884 62.48C42.2884 63.262 42.056 63.8853 41.5914 64.35C41.1267 64.8033 40.5317 65.03 39.8064 65.03C39.081 65.03 38.486 64.8033 38.0214 64.35C37.5567 63.8853 37.3244 63.262 37.3244 62.48ZM47.2524 60.134L40.3674 72H38.8374L45.7224 60.134H47.2524ZM39.8064 60.899C39.421 60.899 39.115 61.035 38.8884 61.307C38.673 61.5677 38.5654 61.9587 38.5654 62.48C38.5654 63.0013 38.673 63.398 38.8884 63.67C39.115 63.942 39.421 64.078 39.8064 64.078C40.1917 64.078 40.4977 63.942 40.7244 63.67C40.951 63.3867 41.0644 62.99 41.0644 62.48C41.0644 61.9587 40.951 61.5677 40.7244 61.307C40.4977 61.035 40.1917 60.899 39.8064 60.899ZM43.8354 69.654C43.8354 68.872 44.0677 68.2543 44.5324 67.801C44.997 67.3363 45.592 67.104 46.3174 67.104C47.0427 67.104 47.632 67.3363 48.0854 67.801C48.55 68.2543 48.7824 68.872 48.7824 69.654C48.7824 70.4247 48.55 71.0423 48.0854 71.507C47.632 71.9717 47.0427 72.204 46.3174 72.204C45.592 72.204 44.997 71.9773 44.5324 71.524C44.0677 71.0593 43.8354 70.436 43.8354 69.654ZM46.3004 68.073C45.915 68.073 45.609 68.209 45.3824 68.481C45.1557 68.7417 45.0424 69.1327 45.0424 69.654C45.0424 70.164 45.1557 70.555 45.3824 70.827C45.609 71.0877 45.915 71.218 46.3004 71.218C46.6857 71.218 46.9917 71.0877 47.2184 70.827C47.445 70.555 47.5584 70.164 47.5584 69.654C47.5584 69.1327 47.445 68.7417 47.2184 68.481C46.9917 68.209 46.6857 68.073 46.3004 68.073Z" fill="white"/>
<path d="M72.6172 95.9371L49.1658 78.5657" stroke="#422CE8" stroke-width="2"/>
<path d="M61.3164 200.738L33.5314 209.667" stroke="#624BE9" stroke-width="2"/>
<path d="M147.115 270.182L139.874 298.453" stroke="#9B51E0" stroke-width="2"/>
<path d="M130.913 53.2639L121.667 25.5829" stroke="#5B90FF" stroke-width="2"/>
<path d="M1.19073 228.759C2.63006 227.603 3.75773 226.657 4.57373 225.92C5.38973 225.172 6.0754 224.396 6.63073 223.591C7.1974 222.775 7.48073 221.976 7.48073 221.194C7.48073 220.457 7.2994 219.879 6.93673 219.46C6.5854 219.029 6.01306 218.814 5.21973 218.814C4.44906 218.814 3.8484 219.058 3.41773 219.545C2.9984 220.021 2.77173 220.661 2.73773 221.466H1.24173C1.28706 220.197 1.6724 219.216 2.39773 218.525C3.12306 217.834 4.05806 217.488 5.20273 217.488C6.37006 217.488 7.29373 217.811 7.97373 218.457C8.66506 219.103 9.01073 219.993 9.01073 221.126C9.01073 222.067 8.7274 222.985 8.16073 223.88C7.6054 224.764 6.97073 225.546 6.25673 226.226C5.54273 226.895 4.6304 227.677 3.51973 228.572H9.36773V229.864H1.19073V228.759ZM11.1561 223.727C11.1561 221.778 11.4734 220.259 12.1081 219.171C12.7427 218.072 13.8534 217.522 15.4401 217.522C17.0154 217.522 18.1204 218.072 18.7551 219.171C19.3897 220.259 19.7071 221.778 19.7071 223.727C19.7071 225.71 19.3897 227.252 18.7551 228.351C18.1204 229.45 17.0154 230 15.4401 230C13.8534 230 12.7427 229.45 12.1081 228.351C11.4734 227.252 11.1561 225.71 11.1561 223.727ZM18.1771 223.727C18.1771 222.741 18.1091 221.908 17.9731 221.228C17.8484 220.537 17.5821 219.981 17.1741 219.562C16.7774 219.143 16.1994 218.933 15.4401 218.933C14.6694 218.933 14.0801 219.143 13.6721 219.562C13.2754 219.981 13.0091 220.537 12.8731 221.228C12.7484 221.908 12.6861 222.741 12.6861 223.727C12.6861 224.747 12.7484 225.603 12.8731 226.294C13.0091 226.985 13.2754 227.541 13.6721 227.96C14.0801 228.379 14.6694 228.589 15.4401 228.589C16.1994 228.589 16.7774 228.379 17.1741 227.96C17.5821 227.541 17.8484 226.985 17.9731 226.294C18.1091 225.603 18.1771 224.747 18.1771 223.727ZM21.4909 220.48C21.4909 219.709 21.7232 219.097 22.1879 218.644C22.6525 218.179 23.2475 217.947 23.9729 217.947C24.6982 217.947 25.2932 218.179 25.7579 218.644C26.2225 219.097 26.4549 219.709 26.4549 220.48C26.4549 221.262 26.2225 221.885 25.7579 222.35C25.2932 222.803 24.6982 223.03 23.9729 223.03C23.2475 223.03 22.6525 222.803 22.1879 222.35C21.7232 221.885 21.4909 221.262 21.4909 220.48ZM31.4189 218.134L24.5339 230H23.0039L29.8889 218.134H31.4189ZM23.9729 218.899C23.5875 218.899 23.2815 219.035 23.0549 219.307C22.8395 219.568 22.7319 219.959 22.7319 220.48C22.7319 221.001 22.8395 221.398 23.0549 221.67C23.2815 221.942 23.5875 222.078 23.9729 222.078C24.3582 222.078 24.6642 221.942 24.8909 221.67C25.1175 221.387 25.2309 220.99 25.2309 220.48C25.2309 219.959 25.1175 219.568 24.8909 219.307C24.6642 219.035 24.3582 218.899 23.9729 218.899ZM28.0019 227.654C28.0019 226.872 28.2342 226.254 28.6989 225.801C29.1635 225.336 29.7585 225.104 30.4839 225.104C31.2092 225.104 31.7985 225.336 32.2519 225.801C32.7165 226.254 32.9489 226.872 32.9489 227.654C32.9489 228.425 32.7165 229.042 32.2519 229.507C31.7985 229.972 31.2092 230.204 30.4839 230.204C29.7585 230.204 29.1635 229.977 28.6989 229.524C28.2342 229.059 28.0019 228.436 28.0019 227.654ZM30.4669 226.073C30.0815 226.073 29.7755 226.209 29.5489 226.481C29.3222 226.742 29.2089 227.133 29.2089 227.654C29.2089 228.164 29.3222 228.555 29.5489 228.827C29.7755 229.088 30.0815 229.218 30.4669 229.218C30.8522 229.218 31.1582 229.088 31.3849 228.827C31.6115 228.555 31.7249 228.164 31.7249 227.654C31.7249 227.133 31.6115 226.742 31.3849 226.481C31.1582 226.209 30.8522 226.073 30.4669 226.073Z" fill="white"/>
<path d="M110.136 306.12V304.709H113.332V317H111.768V306.12H110.136ZM123.827 306.052H117.86V309.928C118.12 309.565 118.506 309.271 119.016 309.044C119.526 308.806 120.075 308.687 120.665 308.687C121.605 308.687 122.37 308.885 122.96 309.282C123.549 309.667 123.968 310.172 124.218 310.795C124.478 311.407 124.609 312.059 124.609 312.75C124.609 313.566 124.456 314.297 124.15 314.943C123.844 315.589 123.373 316.099 122.739 316.473C122.115 316.847 121.339 317.034 120.41 317.034C119.22 317.034 118.256 316.728 117.52 316.116C116.783 315.504 116.335 314.688 116.177 313.668H117.69C117.837 314.314 118.149 314.818 118.625 315.181C119.101 315.544 119.701 315.725 120.427 315.725C121.322 315.725 121.996 315.459 122.45 314.926C122.903 314.382 123.13 313.668 123.13 312.784C123.13 311.9 122.903 311.22 122.45 310.744C121.996 310.257 121.328 310.013 120.444 310.013C119.843 310.013 119.316 310.16 118.863 310.455C118.421 310.738 118.098 311.129 117.894 311.628H116.432V304.692H123.827V306.052ZM126.324 307.48C126.324 306.709 126.557 306.097 127.021 305.644C127.486 305.179 128.081 304.947 128.806 304.947C129.532 304.947 130.127 305.179 130.591 305.644C131.056 306.097 131.288 306.709 131.288 307.48C131.288 308.262 131.056 308.885 130.591 309.35C130.127 309.803 129.532 310.03 128.806 310.03C128.081 310.03 127.486 309.803 127.021 309.35C126.557 308.885 126.324 308.262 126.324 307.48ZM136.252 305.134L129.367 317H127.837L134.722 305.134H136.252ZM128.806 305.899C128.421 305.899 128.115 306.035 127.888 306.307C127.673 306.568 127.565 306.959 127.565 307.48C127.565 308.001 127.673 308.398 127.888 308.67C128.115 308.942 128.421 309.078 128.806 309.078C129.192 309.078 129.498 308.942 129.724 308.67C129.951 308.387 130.064 307.99 130.064 307.48C130.064 306.959 129.951 306.568 129.724 306.307C129.498 306.035 129.192 305.899 128.806 305.899ZM132.835 314.654C132.835 313.872 133.068 313.254 133.532 312.801C133.997 312.336 134.592 312.104 135.317 312.104C136.043 312.104 136.632 312.336 137.085 312.801C137.55 313.254 137.782 313.872 137.782 314.654C137.782 315.425 137.55 316.042 137.085 316.507C136.632 316.972 136.043 317.204 135.317 317.204C134.592 317.204 133.997 316.977 133.532 316.524C133.068 316.059 132.835 315.436 132.835 314.654ZM135.3 313.073C134.915 313.073 134.609 313.209 134.382 313.481C134.156 313.742 134.042 314.133 134.042 314.654C134.042 315.164 134.156 315.555 134.382 315.827C134.609 316.088 134.915 316.218 135.3 316.218C135.686 316.218 135.992 316.088 136.218 315.827C136.445 315.555 136.558 315.164 136.558 314.654C136.558 314.133 136.445 313.742 136.218 313.481C135.992 313.209 135.686 313.073 135.3 313.073Z" fill="white"/>
<path d="M264.136 271.691V270.28H267.332V282.571H265.768V271.691H264.136ZM277.827 271.623H271.86V275.499C272.12 275.137 272.506 274.842 273.016 274.615C273.526 274.377 274.075 274.258 274.665 274.258C275.605 274.258 276.37 274.457 276.96 274.853C277.549 275.239 277.968 275.743 278.218 276.366C278.478 276.978 278.609 277.63 278.609 278.321C278.609 279.137 278.456 279.868 278.15 280.514C277.844 281.16 277.373 281.67 276.739 282.044C276.115 282.418 275.339 282.605 274.41 282.605C273.22 282.605 272.256 282.299 271.52 281.687C270.783 281.075 270.335 280.259 270.177 279.239H271.69C271.837 279.885 272.149 280.39 272.625 280.752C273.101 281.115 273.701 281.296 274.427 281.296C275.322 281.296 275.996 281.03 276.45 280.497C276.903 279.953 277.13 279.239 277.13 278.355C277.13 277.471 276.903 276.791 276.45 276.315C275.996 275.828 275.328 275.584 274.444 275.584C273.843 275.584 273.316 275.732 272.863 276.026C272.421 276.31 272.098 276.701 271.894 277.199H270.432V270.263H277.827V271.623ZM280.324 273.051C280.324 272.281 280.557 271.669 281.021 271.215C281.486 270.751 282.081 270.518 282.806 270.518C283.532 270.518 284.127 270.751 284.591 271.215C285.056 271.669 285.288 272.281 285.288 273.051C285.288 273.833 285.056 274.457 284.591 274.921C284.127 275.375 283.532 275.601 282.806 275.601C282.081 275.601 281.486 275.375 281.021 274.921C280.557 274.457 280.324 273.833 280.324 273.051ZM290.252 270.705L283.367 282.571H281.837L288.722 270.705H290.252ZM282.806 271.47C282.421 271.47 282.115 271.606 281.888 271.878C281.673 272.139 281.565 272.53 281.565 273.051C281.565 273.573 281.673 273.969 281.888 274.241C282.115 274.513 282.421 274.649 282.806 274.649C283.192 274.649 283.498 274.513 283.724 274.241C283.951 273.958 284.064 273.561 284.064 273.051C284.064 272.53 283.951 272.139 283.724 271.878C283.498 271.606 283.192 271.47 282.806 271.47ZM286.835 280.225C286.835 279.443 287.068 278.826 287.532 278.372C287.997 277.908 288.592 277.675 289.317 277.675C290.043 277.675 290.632 277.908 291.085 278.372C291.55 278.826 291.782 279.443 291.782 280.225C291.782 280.996 291.55 281.614 291.085 282.078C290.632 282.543 290.043 282.775 289.317 282.775C288.592 282.775 287.997 282.549 287.532 282.095C287.068 281.631 286.835 281.007 286.835 280.225ZM289.3 278.644C288.915 278.644 288.609 278.78 288.382 279.052C288.156 279.313 288.042 279.704 288.042 280.225C288.042 280.735 288.156 281.126 288.382 281.398C288.609 281.659 288.915 281.789 289.3 281.789C289.686 281.789 289.992 281.659 290.218 281.398C290.445 281.126 290.558 280.735 290.558 280.225C290.558 279.704 290.445 279.313 290.218 279.052C289.992 278.78 289.686 278.644 289.3 278.644Z" fill="white"/>
</svg>
