<svg width="2048" height="574" viewBox="0 0 2048 574" fill="none" xmlns="http://www.w3.org/2000/svg">
<rect width="2048" height="574" fill="#252930"/>
<g opacity="0.25">
<rect opacity="0.5" x="79" y="494" width="10" height="10" rx="5" fill="#C57CE0"/>
<rect x="919" y="494" width="10" height="10" rx="5" fill="#C57CE0"/>
<rect opacity="0.5" x="359" y="494" width="10" height="10" rx="5" fill="#C57CE0"/>
<rect opacity="0.5" x="1199" y="494" width="10" height="10" rx="5" fill="#C57CE0"/>
<rect x="919" y="534" width="10" height="10" rx="5" fill="#C57CE0"/>
<rect x="359" y="534" width="10" height="10" rx="5" fill="#C57CE0"/>
<rect x="1199" y="534" width="10" height="10" rx="5" fill="#C57CE0"/>
<rect x="39" y="494" width="10" height="10" rx="5" fill="#C57CE0"/>
<rect opacity="0.5" x="879" y="494" width="10" height="10" rx="5" fill="#C57CE0"/>
<rect x="319" y="494" width="10" height="10" rx="5" fill="#C57CE0"/>
<rect x="1159" y="494" width="10" height="10" rx="5" fill="#C57CE0"/>
<rect x="39" y="534" width="10" height="10" rx="5" fill="#C57CE0"/>
<rect x="879" y="534" width="10" height="10" rx="5" fill="#C57CE0"/>
<rect x="319" y="534" width="10" height="10" rx="5" fill="#C57CE0"/>
<rect x="1159" y="534" width="10" height="10" rx="5" fill="#C57CE0"/>
<rect x="439" y="494" width="10" height="10" rx="5" fill="#C57CE0"/>
<rect x="159" y="534" width="10" height="10" rx="5" fill="#C57CE0"/>
<rect opacity="0.5" x="999" y="534" width="10" height="10" rx="5" fill="#C57CE0"/>
<rect x="439" y="534" width="10" height="10" rx="5" fill="#C57CE0"/>
<rect x="1279" y="534" width="10" height="10" rx="5" fill="#C57CE0"/>
<rect opacity="0.5" x="239" y="494" width="10" height="10" rx="5" fill="#C57CE0"/>
<rect x="1079" y="494" width="10" height="10" rx="5" fill="#C57CE0"/>
<rect x="519" y="494" width="10" height="10" rx="5" fill="#C57CE0"/>
<rect x="1359" y="494" width="10" height="10" rx="5" fill="#C57CE0"/>
<rect opacity="0.5" x="1719" y="494" width="10" height="10" rx="5" fill="#C57CE0"/>
<rect x="239" y="534" width="10" height="10" rx="5" fill="#C57CE0"/>
<rect x="1079" y="534" width="10" height="10" rx="5" fill="#C57CE0"/>
<rect x="519" y="534" width="10" height="10" rx="5" fill="#C57CE0"/>
<rect x="1359" y="534" width="10" height="10" rx="5" fill="#C57CE0"/>
<rect x="1719" y="534" width="10" height="10" rx="5" fill="#C57CE0"/>
<rect opacity="0.5" x="119" y="494" width="10" height="10" rx="5" fill="#C57CE0"/>
<rect x="399" y="494" width="10" height="10" rx="5" fill="#C57CE0"/>
<rect x="1239" y="494" width="10" height="10" rx="5" fill="#C57CE0"/>
<rect x="119" y="534" width="10" height="10" rx="5" fill="#C57CE0"/>
<rect opacity="0.5" x="959" y="534" width="10" height="10" rx="5" fill="#C57CE0"/>
<rect x="399" y="534" width="10" height="10" rx="5" fill="#C57CE0"/>
<rect opacity="0.5" x="1239" y="534" width="10" height="10" rx="5" fill="#C57CE0"/>
<rect x="199" y="494" width="10" height="10" rx="5" fill="#C57CE0"/>
<rect x="1039" y="494" width="10" height="10" rx="5" fill="#C57CE0"/>
<rect x="1319" y="494" width="10" height="10" rx="5" fill="#C57CE0"/>
<rect opacity="0.5" x="199" y="534" width="10" height="10" rx="5" fill="#C57CE0"/>
<rect x="1039" y="534" width="10" height="10" rx="5" fill="#C57CE0"/>
<rect opacity="0.5" x="479" y="534" width="10" height="10" rx="5" fill="#C57CE0"/>
<rect x="1319" y="534" width="10" height="10" rx="5" fill="#C57CE0"/>
<rect opacity="0.5" x="559" y="494" width="10" height="10" rx="5" fill="#C57CE0"/>
<rect opacity="0.5" x="1399" y="494" width="10" height="10" rx="5" fill="#C57CE0"/>
<rect x="1759" y="494" width="10" height="10" rx="5" fill="#C57CE0"/>
<rect x="79" y="454" width="10" height="10" rx="5" fill="#C57CE0"/>
<rect opacity="0.5" x="1199" y="454" width="10" height="10" rx="5" fill="#C57CE0"/>
<rect x="879" y="454" width="10" height="10" rx="5" fill="#C57CE0"/>
<rect opacity="0.5" x="319" y="454" width="10" height="10" rx="5" fill="#C57CE0"/>
<rect opacity="0.5" x="439" y="454" width="10" height="10" rx="5" fill="#C57CE0"/>
<rect x="519" y="454" width="10" height="10" rx="5" fill="#C57CE0"/>
<rect x="1719" y="454" width="10" height="10" rx="5" fill="#C57CE0"/>
<rect x="119" y="454" width="10" height="10" rx="5" fill="#C57CE0"/>
<rect x="1239" y="454" width="10" height="10" rx="5" fill="#C57CE0"/>
<rect x="199" y="454" width="10" height="10" rx="5" fill="#C57CE0"/>
<rect x="279" y="454" width="10" height="10" rx="5" fill="#C57CE0"/>
<rect opacity="0.5" x="1399" y="454" width="10" height="10" rx="5" fill="#C57CE0"/>
<rect x="279" y="534" width="10" height="10" rx="5" fill="#C57CE0"/>
<rect opacity="0.5" x="1119" y="534" width="10" height="10" rx="5" fill="#C57CE0"/>
<rect x="559" y="534" width="10" height="10" rx="5" fill="#C57CE0"/>
<rect x="1399" y="534" width="10" height="10" rx="5" fill="#C57CE0"/>
<rect opacity="0.5" x="1759" y="534" width="10" height="10" rx="5" fill="#C57CE0"/>
<rect x="639" y="494" width="10" height="10" rx="5" fill="#C57CE0"/>
<rect x="1839" y="494" width="10" height="10" rx="5" fill="#C57CE0"/>
<rect x="639" y="534" width="10" height="10" rx="5" fill="#C57CE0"/>
<rect opacity="0.5" x="1479" y="534" width="10" height="10" rx="5" fill="#C57CE0"/>
<rect x="1839" y="534" width="10" height="10" rx="5" fill="#C57CE0"/>
<rect opacity="0.5" x="599" y="494" width="10" height="10" rx="5" fill="#C57CE0"/>
<rect x="1439" y="494" width="10" height="10" rx="5" fill="#C57CE0"/>
<rect opacity="0.5" x="1799" y="494" width="10" height="10" rx="5" fill="#C57CE0"/>
<rect x="1439" y="534" width="10" height="10" rx="5" fill="#C57CE0"/>
<rect x="719" y="494" width="10" height="10" rx="5" fill="#C57CE0"/>
<rect x="1559" y="494" width="10" height="10" rx="5" fill="#C57CE0"/>
<rect opacity="0.5" x="1919" y="494" width="10" height="10" rx="5" fill="#C57CE0"/>
<rect x="719" y="534" width="10" height="10" rx="5" fill="#C57CE0"/>
<rect x="1559" y="534" width="10" height="10" rx="5" fill="#C57CE0"/>
<rect x="1919" y="534" width="10" height="10" rx="5" fill="#C57CE0"/>
<rect opacity="0.5" x="799" y="494" width="10" height="10" rx="5" fill="#C57CE0"/>
<rect x="1639" y="494" width="10" height="10" rx="5" fill="#C57CE0"/>
<rect opacity="0.5" x="1999" y="494" width="10" height="10" rx="5" fill="#C57CE0"/>
<rect x="799" y="534" width="10" height="10" rx="5" fill="#C57CE0"/>
<rect opacity="0.5" x="1639" y="534" width="10" height="10" rx="5" fill="#C57CE0"/>
<rect x="679" y="494" width="10" height="10" rx="5" fill="#C57CE0"/>
<rect opacity="0.5" x="1519" y="494" width="10" height="10" rx="5" fill="#C57CE0"/>
<rect x="1879" y="494" width="10" height="10" rx="5" fill="#C57CE0"/>
<rect opacity="0.5" x="679" y="534" width="10" height="10" rx="5" fill="#C57CE0"/>
<rect x="1519" y="534" width="10" height="10" rx="5" fill="#C57CE0"/>
<rect opacity="0.5" x="1879" y="534" width="10" height="10" rx="5" fill="#C57CE0"/>
<rect x="759" y="534" width="10" height="10" rx="5" fill="#C57CE0"/>
<rect opacity="0.5" x="1599" y="534" width="10" height="10" rx="5" fill="#C57CE0"/>
<rect opacity="0.5" x="1959" y="534" width="10" height="10" rx="5" fill="#C57CE0"/>
<rect x="639" y="454" width="10" height="10" rx="5" fill="#C57CE0"/>
<rect x="1479" y="454" width="10" height="10" rx="5" fill="#C57CE0"/>
<rect x="599" y="454" width="10" height="10" rx="5" fill="#C57CE0"/>
<rect x="1439" y="454" width="10" height="10" rx="5" fill="#C57CE0"/>
<rect opacity="0.5" x="1799" y="454" width="10" height="10" rx="5" fill="#C57CE0"/>
<rect opacity="0.5" x="719" y="454" width="10" height="10" rx="5" fill="#C57CE0"/>
<rect x="1919" y="454" width="10" height="10" rx="5" fill="#C57CE0"/>
<rect opacity="0.5" x="1639" y="454" width="10" height="10" rx="5" fill="#C57CE0"/>
<rect opacity="0.5" x="1999" y="454" width="10" height="10" rx="5" fill="#C57CE0"/>
<rect x="1519" y="454" width="10" height="10" rx="5" fill="#C57CE0"/>
<rect x="1599" y="454" width="10" height="10" rx="5" fill="#C57CE0"/>
<rect x="839" y="454" width="10" height="10" rx="5" fill="#C57CE0"/>
<rect x="839" y="534" width="10" height="10" rx="5" fill="#C57CE0"/>
<rect x="1679" y="534" width="10" height="10" rx="5" fill="#C57CE0"/>
</g>
</svg>
