<svg width="944" height="154" viewBox="0 0 944 154" fill="none" xmlns="http://www.w3.org/2000/svg">
<g clip-path="url(#clip0)">
<rect width="944" height="154" rx="4" fill="#175DF1"/>
<path d="M846.299 197.3C837.632 188.632 831.502 177.759 828.572 165.857C825.642 153.955 826.024 141.478 829.677 129.778C833.331 118.078 840.116 107.6 849.297 99.4798C858.479 91.3596 869.708 85.9064 881.767 83.7108C893.826 81.5152 906.256 82.661 917.71 87.024C929.165 91.3869 939.207 98.8008 946.75 108.463C954.293 118.124 959.048 129.666 960.501 141.837C961.954 154.008 960.049 166.344 954.993 177.51" stroke="#422CE8" stroke-width="2"/>
<path opacity="0.5" d="M114.407 42.9701L56.4371 27.4371L98.8742 -15L114.407 42.9701Z" fill="#A0DBED"/>
<rect opacity="0.5" x="903.247" y="14.63" width="28.4251" height="28.4251" transform="rotate(60 903.247 14.63)" fill="#5B90FF"/>
</g>
<defs>
<clipPath id="clip0">
<rect width="944" height="154" fill="white"/>
</clipPath>
</defs>
</svg>
