<?xml version="1.0" encoding="utf-8"?>
<!-- Generator: Adobe Illustrator 16.0.0, SVG Export Plug-In . SVG Version: 6.00 Build 0)  -->
<!DOCTYPE svg PUBLIC "-//W3C//DTD SVG 1.1//EN" "http://www.w3.org/Graphics/SVG/1.1/DTD/svg11.dtd">
<svg version="1.1" id="Layer_1" xmlns="http://www.w3.org/2000/svg" xmlns:xlink="http://www.w3.org/1999/xlink" x="0px" y="0px"
	 width="279.32px" height="237.88px" viewBox="0 0 279.32 237.88" enable-background="new 0 0 279.32 237.88" xml:space="preserve">
<path fill="#2979FE" d="M62.91,83.016v-0.002V83.016z"/>
<g>
	<path fill="#2979FE" d="M239.019,107.341c-1.031-1.968-2.232-3.853-3.574-5.602c-3.023-3.943-6.891-7.435-11.492-10.378
		c-0.156-0.118-0.309-0.217-0.464-0.331l-2.761,8.331c-0.303,0.912-1.013,1.643-1.854,1.909c-1.754,0.552-3.393,0.917-4.924,1.123
		c-4.63,0.621-8.27-0.22-11.115-1.777c-5.339-2.921-7.877-8.347-8.924-11.35c-2.872,3.574,7.276,12.942,7.276,12.942
		c-5.854-0.982-10.038-7.252-11.461-11.566c-0.033-0.101-0.073-0.206-0.104-0.305c-1-3.265,2.136-4.232,3.726-4.51
		c0.107-0.387,0.288-0.761,0.544-1.088l2.343-2.996c-2.939-0.512-5.839-0.778-8.654-0.778c-20.917,0-37.944,13.736-58.636,35.899
		c-0.98,1.05-1.927,2.038-2.849,2.981c-2.96,3.026-5.623,5.509-8.021,7.558c-0.436,0.181-1.128,0.675-2.164,1.597c-9,8-27,4-27,4
		l-0.135,0.027l-1.927-0.832c-14.504-6.268-24.439-20.591-28.736-41.421c-0.48-2.333-0.894-4.766-1.236-7.258
		c-0.066-0.487-0.126-0.981-0.187-1.473c-0.036-0.288-0.077-0.574-0.11-0.864c-0.02-0.165-0.017-0.327-0.008-0.488
		c0.033-0.623,0.263-1.209,0.685-1.685c0.123-0.137,0.259-0.257,0.403-0.367c0.043-0.033,0.089-0.06,0.134-0.09
		c0.455-0.307,0.985-0.484,1.536-0.484c0.275,0,0.55,0.042,0.822,0.125l4.957,1.522c4.318,1.913,13.718,6.146,18.802,8.288
		c1.984,0.837,3.893,1.377,3.893,1.377l0.147,0.018c0.759,0.091,1.5,0.135,2.226,0.135c3.547,0,6.684-1.057,9.592-3.233
		c3.076-2.3,5.522-5.577,7.446-9.071c1.939-3.521,3.347-7.263,4.333-10.454l0.547-1.769l-1.779,0.513
		c-1.742,0.502-3.428,0.757-5.008,0.757c-1.348,0-2.641-0.187-3.842-0.556l-1.259-0.392c-1.955-0.608-16.528-5.074-28.121-6.692
		c-0.28-0.001-0.652-0.028-1.086-0.071C70.267,57.093,68.911,56,68.911,56l-15-3l-3.232,0.323c-1.637-0.766-3.044-1.116-3.044-1.116
		l0.108-0.017c-7.696-2.185-19.499-4.08-31.859-4.95c-2.679-0.185-5.381-1.279-8.031-3.253l-1.52-1.132l-0.078,1.892
		c-0.104,2.56-0.057,5.45,0.285,8.409c0.125,1.088,0.293,2.184,0.508,3.278c0.55,2.798,1.422,5.569,2.74,8.111
		c0.895,1.727,1.985,3.352,3.336,4.795c4.262,4.551,10.665,6.857,19.032,6.857c2.902,0,6.086-0.28,9.463-0.833
		c0.209-0.035,0.42-0.051,0.629-0.051c0.988,0,1.931,0.371,2.654,1.044c0.875,0.816,1.332,2.013,1.222,3.204
		c-0.036,0.308-0.252,2.205-0.466,5.321c-0.648,9.413-1.277,29.963,3.158,51.548c1.328,6.463,2.992,12.471,4.979,18.029
		c8.268,23.122,22.212,38.391,41.613,45.484l0.892,0.326l0.371-0.875c2.614-6.166,3.793-11.405,3.533-15.639
		c-0.04-0.654-0.109-1.289-0.218-1.895l0.134-0.035c-0.96-5.963-3.861-10.71-3.861-10.71l-4.21-5.654
		c13.984,3.548,15.699,14.419,15.699,14.419c0.83,4.064,0.503,8.523-0.558,13.065c-3.172,13.574-12.91,27.894-17.966,34.667
		l-0.81,1.086l1.275,0.455c4.342,1.547,8.619,2.332,12.711,2.332c9.094,0,16.57-3.846,22.224-11.428
		c0.485-0.65,0.946-1.303,1.41-1.955c10.126-14.24,15.273-28.743,17.551-36.729h0.037l0.182-0.787
		c0.139-0.604,0.992-3.611,4.164-3.611c1.057,0,2.285,0.324,3.65,0.967c2.082,1.339,4.419,2.177,6.602,2.707
		c-0.038-0.023-0.08-0.044-0.117-0.067c-4.899-3.079-6.61-11.075-6.681-11.416c-0.067-0.427-0.21-0.886-0.342-1.153
		c-1.013,0.361-1.414,1.237-1.85,2.405c-0.297,0.795-0.604,1.616-1.454,1.977c-0.471,0.199-0.999,0.191-1.491-0.023
		c-1.139-0.498-1.655-2.054-1.315-3.963c0.275-1.545,1.823-6.628,10.193-7.13c4.73-0.285,7.591,0.366,8.509,1.927
		c0.419,0.714,0.402,1.557-0.044,2.255c-0.688,1.078-2.262,1.638-4.106,1.456l-0.797-0.079c-0.44-0.045-0.912-0.094-1.298-0.121
		c0.013,0.047,0.026,0.098,0.041,0.15c0.896,3.18,2.588,5.372,5.171,6.701c3.214,1.653,7.193,1.625,10.358,1.189
		c11.412-4.759,22.396-19.173,37.664-43.023c3.842-6.001,7.685-10.842,11.508-14.506c4.935-4.73,9.837-7.5,14.661-8.27
		c0.474-0.075,0.933-0.123,1.377-0.157l1.515-0.116L239.019,107.341z"/>
</g>
<path fill="#DCE6F1" d="M39.632,82.148l0.012-0.183l-2.3,0.181C38.242,82.165,39.016,82.162,39.632,82.148"/>
<path fill="#DCE6F1" d="M56.877,83.516c-0.067-0.488-0.126-0.981-0.187-1.473c0.094,0.901,0.187,1.477,0.187,1.477V83.516z"/>
<path fill="#DCE6F1" d="M173.655,147.095c-1.669-0.465-3.528,0.066-4.684,1.5c-1.55,1.924-1.246,4.739,0.677,6.288
	c1.924,1.549,4.738,1.246,6.287-0.678c0.613-0.76,0.925-1.66,0.973-2.567c-1.005,0.791-2.453,0.82-3.491-0.016
	c-1.207-0.972-1.397-2.738-0.425-3.944C173.184,147.439,173.412,147.253,173.655,147.095"/>
<path fill="#DCE6F1" d="M242.642,117.277l-0.459-0.208c-0.539-0.244-1.447-0.534-2.713-0.534c-0.6,0-1.225,0.065-1.861,0.196
	c-3.48,0.713-10.758,4.156-20.389,19.203c-14.352,22.417-26.331,39.647-40.332,45.896l0.021,0.002c0,0-3.775,2.836-11.07,3.542
	c-3.364,0.326-7.474,0.2-12.312-0.868c-0.181-0.04-0.337-0.074-0.51-0.112l-0.871-0.115l-1.002-0.129
	c-1.82,6.305-4.962,15.224-10.153,24.961l-0.686,1.286l1.447,0.178c1.011,0.123,2.03,0.225,3.055,0.313
	c1.651,0.144,3.317,0.245,4.991,0.297c1.594-0.237,3.31-0.558,5.142-0.99c2.632-0.62,5.497-1.471,8.542-2.617
	c0.365-0.138,0.732-0.28,1.102-0.426c0.939-0.372,1.895-0.771,2.864-1.2c13.118-5.81,28.99-17.205,44.362-39.318
	c0,0-9.59,22.982-33.965,40.129c-0.79,0.556-1.594,1.106-2.415,1.648l0.403-0.063c4.504-1.119,8.937-2.543,13.242-4.285
	c2.678-1.56,6.195-3.622,10.114-5.952c1.944-1.156,3.982-2.376,6.065-3.633c2.06-1.243,4.159-2.52,6.248-3.804
	c0.207-0.366,0.419-0.748,0.632-1.132c5.957-10.736,14.157-28.212,19.563-50.776c0,0-1.842,22.768-9.019,40.876
	c-0.357,0.902-0.725,1.795-1.109,2.67c6.378-6.65,12.447-15.153,16.677-25.825c0.104-1.174,0.203-2.398,0.293-3.659
	c0.612-8.564,0.801-18.705-0.96-24.598c0,0,2.255,6.141,3.781,14.174c0.162,0.852,0.315,1.726,0.457,2.616
	c0.461-1.987,0.867-4.028,1.195-6.137c1.19-7.67,1.104-14.773-0.267-21.112L242.642,117.277z"/>
<path fill="#DCE6F1" d="M204.111,82.568c0.827-1.114,1.803-1.795,2.884-2.213c1.827-0.707,3.958-0.657,6.189-0.637
	c5.024,0.045,10.56-0.081,14.303-9.445c0,0-4.375,7.134-12.596,5.798c-2.024-0.329-3.341-0.468-4.178-0.492l11.128-16.805
	c0,0,7.64,1.826,13.305-9.101c0,0-6.774,7.213-11.139,6.005l8.006-12.495l7.045-10.995l-7.863,10.33L204.908,77.05l-1.586,2.083
	l-2.595,3.409l-1.319,1.732c0,0-1.221,2.067-1.194,4.586c0.022,2.087,0.9,4.483,4.049,6.272c0,0-0.593-0.913-0.921-2.48
	c-0.452-2.155-0.375-5.561,2.448-9.611C203.9,82.883,203.992,82.729,204.111,82.568"/>
<path fill="none" stroke="#DCE6F1" stroke-linecap="round" stroke-linejoin="round" stroke-miterlimit="10" d="M204.111,82.568
	c0.827-1.114,1.803-1.795,2.884-2.213c1.827-0.707,3.958-0.657,6.189-0.637c5.024,0.045,10.56-0.081,14.303-9.445
	c0,0-4.375,7.134-12.596,5.798c-2.024-0.329-3.341-0.468-4.178-0.492l11.128-16.805c0,0,7.64,1.826,13.305-9.101
	c0,0-6.774,7.213-11.139,6.005l8.006-12.495l7.045-10.995l-7.863,10.33L204.908,77.05l-1.586,2.083l-2.595,3.409l-1.319,1.732
	c0,0-1.221,2.067-1.194,4.586c0.022,2.087,0.9,4.483,4.049,6.272c0,0-0.593-0.913-0.921-2.48c-0.452-2.155-0.375-5.561,2.448-9.611
	C203.9,82.883,203.992,82.729,204.111,82.568z"/>
<path fill="#323878" d="M167.423,157.646c3.371,2.716,8.306,2.184,11.021-1.187c2.717-3.372,2.184-8.306-1.188-11.021
	c-3.371-2.716-8.306-2.184-11.021,1.188C163.52,149.996,164.052,154.931,167.423,157.646 M168.972,148.595
	c1.155-1.435,3.015-1.965,4.684-1.5c-0.243,0.157-0.472,0.344-0.663,0.582c-0.973,1.207-0.782,2.973,0.425,3.944
	c1.038,0.836,2.486,0.807,3.491,0.017c-0.048,0.906-0.359,1.806-0.973,2.567c-1.549,1.923-4.363,2.226-6.287,0.677
	C167.726,153.333,167.422,150.518,168.972,148.595"/>
<path fill="#323878" d="M276.946,28.088l-7.995,2.562c1.96,5.693,2.548,11.944,1.415,18.281
	c-2.427,13.582-12.105,24.077-24.331,28.221l2.676,7.954c15.034-5.08,26.914-17.976,29.902-34.701
	C279.996,42.667,279.305,35.04,276.946,28.088"/>
<path fill="#323878" d="M199.433,53.339c-1.692-5.421-2.154-11.311-1.088-17.277c2.415-13.516,12.011-23.973,24.153-28.158
	L219.686,0c-14.884,5.153-26.621,17.98-29.589,34.588c-1.334,7.468-0.733,14.831,1.43,21.585L199.433,53.339z"/>
<path fill="#323878" d="M240.601,61.008l0.007,0.008l2.674,7.949c9.168-3.216,16.39-11.139,18.221-21.385
	c0.88-4.924,0.399-9.773-1.159-14.174l-8.004,2.565c1.159,3.139,1.545,6.609,0.915,10.135
	C251.982,53.223,246.965,58.735,240.601,61.008"/>
<path fill="#323878" d="M206.677,37.783c-0.783,4.385-0.488,8.711,0.685,12.713l7.909-2.835l0.022,0.004
	c-0.712-2.666-0.887-5.517-0.369-8.408c1.316-7.372,6.652-13.026,13.343-15.137l-2.815-7.914
	C216.02,19.292,208.545,27.33,206.677,37.783"/>
<path fill="#323878" d="M225.476,85.031l13.032-39.337l6.353-19.171c0.39-1.179,0.012-2.375-0.905-2.877
	c-0.006-0.003-0.014-0.008-0.02-0.011c-0.932-0.495-2.153-0.143-2.924,0.844l-12.08,15.449l-28.4,36.32
	c-0.146-0.02-0.268-0.036-0.357-0.048l-0.118-0.014l-0.116-0.026c-4.139-0.91-8.27-1.371-12.277-1.371
	c-21.418,0-38.59,12.944-54.054,28.321c-1.573,1.565-3.129,3.153-4.669,4.756c-1.52,1.582-3.026,3.177-4.519,4.776
	c-14.21,15.221-23.79,16.404-26.388,16.404c-0.111,0-0.196-0.002-0.257-0.005l-0.184-0.008L97.41,129
	c-17.121-3.197-28.623-16.988-33.263-39.882l-1.006-4.967c1.98,1.302,16.626,10.794,23.446,11.302
	c0.055,0.004,0.101,0.007,0.154,0.01c1.209,0.166,2.363,0.258,3.472,0.258c4.843,0,9.312-1.509,13.284-4.486
	c13.173-9.874,16.383-32.603,16.513-33.565c0.126-0.932-0.32-1.835-1.136-2.301c-0.347-0.198-0.74-0.302-1.137-0.302
	c-0.512,0-1.017,0.175-1.422,0.494c-1.596,1.26-6.678,4.534-10.956,4.534c-0.738,0-1.436-0.098-2.071-0.291l-1.239-0.385
	c-2.115-0.658-18.449-5.662-31-7.143c-0.324-0.056-0.675-0.109-1.08-0.154c-8.265-0.927-8.897,0.127-8.897,0.127l-0.547-0.524
	c-5.484-5.253-21.184-9.037-44.208-10.657c-5.623-0.394-10.58-8.549-10.63-8.632c-0.418-0.706-1.173-1.137-1.978-1.137
	c-0.115,0-0.231,0.009-0.348,0.026c-0.932,0.144-1.672,0.827-1.887,1.743c-0.251,1.072-6.014,26.418,7.11,40.474
	c5.479,5.866,13.399,8.841,23.541,8.841c1.455,0,2.976-0.061,4.521-0.182l0.699-0.055l2.299-0.181l-0.012,0.183l-0.188,2.819
	c-0.813,12.138-1.399,39.247,6.362,65.202c0.519,1.733,1.073,3.461,1.668,5.179c3.493,10.085,8.358,19.823,15.073,28.251
	c3.758,4.717,8.096,9.021,13.103,12.745c4.884,3.633,10.395,6.717,16.628,9.084l2.823,1.072l-1.479,2.632
	c-4.457,7.935-9.806,15.273-13.326,19.496c-0.454,0.546-0.643,1.261-0.518,1.961c0.125,0.699,0.55,1.304,1.165,1.658
	c2.299,1.321,10.635,5.633,21.384,5.633c3.346,0,6.578-0.436,9.604-1.292c7.027-1.991,13.025-6.266,17.827-12.706
	c1.577-2.117,3.12-4.341,4.585-6.61l0.227-0.353c0.334,6.665-3.368,13.717-3.412,13.801c-0.342,0.64-0.31,1.415,0.082,2.024
	c0.393,0.609,1.084,0.959,1.807,0.914l7.116-0.453c12.787-1.751,19.907-9.793,23.683-16.45c17.358-1.943,34.254-8.299,48.505-18.395
	c20.347-14.412,33.063-34.65,36.775-58.528c2.611-16.78-0.34-30.862-8.77-41.858C236.491,92.935,231.483,88.583,225.476,85.031
	 M199.408,84.274l1.319-1.732l2.595-3.409l1.586-2.083l26.287-34.533l7.863-10.329l-7.045,10.994l-8.007,12.496
	c4.364,1.208,11.14-6.005,11.14-6.005c-5.665,10.927-13.304,9.1-13.304,9.1l-11.129,16.806c0.837,0.024,2.153,0.163,4.178,0.491
	c8.221,1.336,12.596-5.797,12.596-5.797c-3.743,9.363-9.278,9.489-14.303,9.445c-2.231-0.02-4.362-0.071-6.189,0.636
	c-1.082,0.418-2.057,1.1-2.884,2.214c-0.119,0.16-0.211,0.314-0.322,0.473c-2.822,4.05-2.899,7.456-2.447,9.611
	c0.328,1.566,0.921,2.48,0.921,2.48c-3.148-1.79-4.026-4.186-4.049-6.272C198.188,86.341,199.408,84.274,199.408,84.274
	 M72.085,58.633c11.593,1.618,26.166,6.084,28.12,6.692l1.26,0.391c1.201,0.37,2.494,0.556,3.842,0.556
	c1.58,0,3.266-0.255,5.008-0.757l1.779-0.512l-0.547,1.768c-0.986,3.191-2.394,6.934-4.333,10.455
	c-1.924,3.494-4.37,6.771-7.446,9.071c-2.908,2.175-6.045,3.233-9.592,3.233c-0.726,0-1.467-0.045-2.226-0.136l-0.147-0.017
	c0,0-1.909-0.541-3.893-1.378c-5.084-2.141-14.484-6.374-18.802-8.287l-3.145-0.966c-0.368-3.814-0.843-8.807-1.315-13.996
	c-0.195-2.146-0.485-4.004-0.83-5.618l0.002,0.003c0,0,0.09-3.136,5.114-1.816c0.002,0,0.004,0,0.006,0.001
	c1.684,0.419,3.335,0.798,4.85,1.094C70.833,58.564,71.577,58.63,72.085,58.633 M62.911,83.014v0.002V83.014L62.911,83.014z
	 M126.034,218.103c-0.464,0.652-0.925,1.305-1.41,1.955c-5.654,7.582-13.13,11.427-22.224,11.427c-4.092,0-8.369-0.784-12.711-2.332
	l-1.276-0.454l0.811-1.086c5.056-6.773,14.794-21.093,17.966-34.668c1.061-4.542,1.388-9.001,0.557-13.064
	c0,0-1.714-10.871-15.698-14.419l4.21,5.654c0,0,2.901,4.747,3.861,10.71l-0.134,0.034c0.109,0.606,0.178,1.241,0.218,1.896
	c0.26,4.232-0.919,9.473-3.533,15.639l-0.371,0.875l-0.892-0.326c-19.401-7.093-33.345-22.362-41.613-45.483
	c-1.987-5.559-3.651-11.567-4.979-18.03c-4.435-21.585-3.806-42.135-3.158-51.548c0.214-3.115,0.43-5.012,0.466-5.321
	c0.11-1.19-0.347-2.387-1.222-3.204c-0.723-0.673-1.666-1.044-2.655-1.044c-0.209,0-0.419,0.017-0.628,0.052
	c-3.377,0.553-6.561,0.833-9.463,0.833c-8.368,0-14.77-2.307-19.032-6.858c-1.351-1.443-2.441-3.068-3.336-4.795
	c-1.318-2.542-2.19-5.313-2.74-8.111c-0.215-1.094-0.383-2.189-0.509-3.277c-0.341-2.959-0.388-5.849-0.284-8.409l0.078-1.893
	l1.52,1.132c2.65,1.975,5.352,3.068,8.031,3.254c11.764,0.828,23.016,2.585,30.71,4.637c0,0,5.226,1.522,6.772,4.305
	c0.792,1.763,1.609,4.611,1.806,9.066c0.322,7.312,0.883,12.174,1.413,15.341c-0.003,0.034-0.011,0.067-0.013,0.101
	c-0.009,0.161-0.012,0.323,0.008,0.488c0.033,0.29,0.074,0.576,0.11,0.865c0.061,0.492,0.12,0.985,0.187,1.473
	c0.342,2.491,0.756,4.924,1.236,7.257c4.297,20.83,14.232,35.153,28.736,41.421l1.681,0.726h0.001c0,0,13.38,6.079,25.685-2.42
	c3.299-2.473,7.222-5.894,11.88-10.656c0.922-0.942,1.869-1.931,2.849-2.98c20.691-22.163,37.718-35.9,58.636-35.9
	c2.815,0,5.715,0.266,8.654,0.778l-2.343,2.997c-0.256,0.327-0.438,0.701-0.544,1.087c-1.59,0.279-4.727,1.246-3.727,4.511
	c0.031,0.098,0.071,0.204,0.104,0.305c1.423,4.314,5.605,10.583,11.461,11.566c0,0-10.149-9.368-7.276-12.942
	c1.046,3.003,3.585,8.428,8.924,11.349c2.846,1.557,6.485,2.399,11.115,1.777c1.531-0.205,3.17-0.57,4.924-1.123
	c0.842-0.265,1.552-0.997,1.854-1.909l2.761-8.331c0.155,0.114,0.308,0.214,0.464,0.331c4.602,2.943,8.469,6.436,11.492,10.379
	c1.342,1.749,2.543,3.634,3.574,5.601l0.703,1.345l-1.515,0.116c-0.444,0.035-0.903,0.082-1.377,0.158
	c-4.824,0.77-9.727,3.539-14.661,8.269c-3.823,3.665-7.666,8.505-11.508,14.506c-15.269,23.851-26.252,38.265-37.665,43.024
	c-3.164,0.436-7.144,0.464-10.357-1.189c-2.583-1.329-4.274-3.521-5.171-6.701c-0.015-0.053-0.028-0.104-0.041-0.15
	c0.386,0.027,0.857,0.076,1.298,0.121l0.797,0.079c1.845,0.182,3.418-0.378,4.106-1.455c0.446-0.7,0.463-1.543,0.044-2.256
	c-0.918-1.562-3.778-2.212-8.51-1.927c-8.369,0.502-9.917,5.583-10.192,7.129c-0.34,1.909,0.177,3.465,1.315,3.963
	c0.492,0.215,1.021,0.223,1.491,0.023c0.851-0.36,1.157-1.182,1.454-1.977c0.436-1.168,0.837-2.044,1.85-2.405
	c0.132,0.268,0.274,0.727,0.342,1.153c0.07,0.34,1.781,8.337,6.681,11.416c0.037,0.023,0.079,0.044,0.117,0.067
	c-2.183-0.53-4.52-1.368-6.602-2.707c-1.365-0.643-2.594-0.967-3.65-0.967c-3.172,0-4.025,3.008-4.164,3.611l-0.183,0.787h-0.036
	C141.307,189.36,136.16,203.863,126.034,218.103 M242.642,117.277l0.104,0.492c1.37,6.339,1.457,13.442,0.267,21.112
	c-0.328,2.109-0.734,4.15-1.195,6.137c-0.142-0.89-0.295-1.764-0.457-2.616c-1.526-8.033-3.781-14.174-3.781-14.174
	c1.761,5.893,1.572,16.034,0.96,24.598c-0.09,1.261-0.188,2.485-0.293,3.659c-4.229,10.671-10.299,19.174-16.677,25.825
	c0.385-0.875,0.752-1.768,1.109-2.67c7.177-18.108,9.019-40.876,9.019-40.876c-5.406,22.564-13.606,40.04-19.563,50.776
	c-0.213,0.384-0.425,0.766-0.632,1.132c-0.214,0.377-0.423,0.745-0.63,1.104c-0.706,0.532-1.409,1.047-2.1,1.536
	c-6.118,4.334-12.749,7.938-19.698,10.749c-4.306,1.742-8.738,3.166-13.242,4.285c-0.17,0.042-0.337,0.089-0.507,0.13
	c0.034-0.021,0.069-0.044,0.104-0.066c0.821-0.542,1.625-1.093,2.415-1.648c24.375-17.146,33.965-40.129,33.965-40.129
	c-15.372,22.113-31.244,33.509-44.362,39.318c-0.97,0.43-1.925,0.828-2.864,1.2c-0.369,0.146-0.736,0.288-1.102,0.426
	c-3.045,1.146-5.91,1.997-8.542,2.617c-1.832,0.433-3.548,0.753-5.142,0.99c-1.674-0.052-3.34-0.153-4.991-0.297
	c-1.024-0.089-2.044-0.19-3.055-0.313l-1.447-0.178l0.686-1.286c5.191-9.737,8.333-18.656,10.153-24.961l1.002,0.129l0.871,0.115
	c0.173,0.038,0.329,0.072,0.51,0.112c4.839,1.068,8.948,1.194,12.312,0.868c7.295-0.706,11.07-3.542,11.07-3.542l-0.021-0.002
	c14.001-6.248,25.98-23.479,40.332-45.896c9.631-15.047,16.908-18.49,20.389-19.203c0.637-0.131,1.262-0.196,1.861-0.196
	c1.266,0,2.174,0.29,2.713,0.534L242.642,117.277z"/>
</svg>
