<?xml version="1.0" encoding="utf-8"?>
<!-- Generator: Adobe Illustrator 16.0.0, SVG Export Plug-In . SVG Version: 6.00 Build 0)  -->
<!DOCTYPE svg PUBLIC "-//W3C//DTD SVG 1.1//EN" "http://www.w3.org/Graphics/SVG/1.1/DTD/svg11.dtd">
<svg version="1.1" id="Layer_1" xmlns="http://www.w3.org/2000/svg" xmlns:xlink="http://www.w3.org/1999/xlink" x="0px" y="0px"
	 width="273.504px" height="231.486px" viewBox="0 0 273.504 231.486" enable-background="new 0 0 273.504 231.486"
	 xml:space="preserve">
<path fill="#DCE6F1" d="M236.438,117.277l-0.459-0.208c-0.539-0.244-1.447-0.534-2.713-0.534c-0.601,0-1.226,0.065-1.861,0.196
	c-3.48,0.713-10.758,4.156-20.389,19.203c-14.353,22.417-26.332,39.646-40.332,45.896l0.021,0.002c0,0-3.774,2.836-11.07,3.542
	c-3.364,0.326-7.474,0.2-12.312-0.868c-0.182-0.04-0.338-0.073-0.51-0.111l-0.871-0.115l-1.002-0.129
	c-1.82,6.305-4.963,15.224-10.153,24.961l-0.686,1.286l1.447,0.178c1.011,0.123,2.03,0.225,3.055,0.313
	c1.651,0.144,3.317,0.244,4.991,0.297c1.595-0.237,3.31-0.559,5.142-0.99c2.633-0.62,5.498-1.471,8.543-2.617
	c0.365-0.138,0.731-0.28,1.102-0.426c0.939-0.372,1.895-0.771,2.864-1.2c13.118-5.81,28.989-17.205,44.362-39.318
	c0,0-3.646,21.472-28.021,38.617c-0.79,0.557-1.594,1.106-2.415,1.648l0.403-0.063c4.504-1.119,2.991-1.03,7.297-2.772
	c2.678-1.561,6.194-3.622,10.114-5.952c1.943-1.156,3.981-2.376,6.064-3.633c2.061-1.243,4.159-2.521,6.248-3.805
	c0.207-0.365,0.419-0.748,0.633-1.132c5.957-10.735,14.156-28.212,19.562-50.775c0,0,1.887,18.609-5.29,36.718
	c-0.356,0.901-0.726,1.795-1.108,2.67c6.377-6.65,8.719-10.995,12.947-21.667c0.104-1.174,0.203-2.398,0.293-3.659
	c0.611-8.563,0.801-18.705-0.96-24.598c0,0,2.991,2.647,4.519,10.682c0.162,0.853,0.314,1.727,0.457,2.616
	c0.461-1.987,0.131-0.536,0.459-2.646c1.189-7.67,1.104-14.772-0.268-21.111L236.438,117.277z"/>
<path fill="#FFFFFF" d="M197.906,82.568c0.826-1.114,1.803-1.795,2.884-2.213c1.827-0.707,3.958-0.657,6.188-0.638
	c5.024,0.046,10.561-0.08,14.304-9.444c0,0-4.375,7.134-12.597,5.798c-2.023-0.329-3.34-0.468-4.178-0.492l11.129-16.805
	c0,0,7.639,1.826,13.305-9.102c0,0-6.774,7.213-11.14,6.005l8.007-12.494l7.045-10.995l-7.863,10.33L198.703,77.05l-1.586,2.083
	l-2.596,3.409l-1.318,1.732c0,0-1.221,2.066-1.194,4.586c0.022,2.087,0.9,4.482,4.05,6.271c0,0-0.594-0.913-0.922-2.479
	c-0.451-2.155-0.375-5.562,2.448-9.611C197.695,82.883,197.787,82.729,197.906,82.568"/>
<path fill="#FFFFFF" d="M169.064,151.621c-1.207-0.971-1.396-2.737-0.424-3.944c0.19-0.237,0.42-0.425,0.662-0.581
	c-1.669-0.466-3.527,0.064-4.684,1.5c-1.551,1.923-1.246,4.737,0.677,6.286c1.925,1.55,4.738,1.246,6.287-0.677
	c0.612-0.761,0.925-1.661,0.974-2.566C171.552,152.427,170.104,152.458,169.064,151.621z"/>
<path fill="#0846B5" d="M271.13,28.088l-7.995,2.562c1.961,5.692,2.549,11.943,1.415,18.281
	c-2.427,13.582-12.104,24.076-24.331,28.221l2.676,7.954c15.035-5.08,26.914-17.977,29.902-34.701
	C274.18,42.667,273.488,35.04,271.13,28.088"/>
<path fill="#0846B5" d="M193.616,53.339c-1.692-5.421-2.154-11.311-1.089-17.276c2.416-13.517,12.012-23.974,24.154-28.158
	L213.869,0c-14.885,5.153-26.621,17.98-29.59,34.588c-1.334,7.469-0.732,14.831,1.431,21.585L193.616,53.339z"/>
<path fill="#0846B5" d="M234.784,61.008l0.007,0.009l2.674,7.948c9.168-3.216,16.391-11.139,18.221-21.385
	c0.881-4.924,0.399-9.772-1.158-14.174l-8.004,2.565c1.158,3.139,1.545,6.608,0.914,10.135
	C246.166,53.223,241.148,58.735,234.784,61.008"/>
<path fill="#0846B5" d="M200.859,37.783c-0.782,4.385-0.487,8.711,0.686,12.713l7.909-2.835l0.022,0.004
	c-0.713-2.666-0.888-5.517-0.369-8.408c1.315-7.372,6.651-13.025,13.343-15.137l-2.815-7.914
	C210.203,19.292,202.729,27.33,200.859,37.783"/>
<g>
	<path fill="#165DF0" d="M64.111,58.464c-0.122-0.017-0.236-0.029-0.368-0.049c-0.624-0.122-1.281-0.266-1.943-0.413
		c-2.045-0.332-3.89-0.659-5.558-0.979c-2.403,0.216-2.47,2.111-2.47,2.111l-0.002-0.003c0.346,1.614,0.636,3.473,0.83,5.618
		c0.473,5.189,0.947,10.183,1.315,13.996l3.146,0.966c1.413,0.626,3.373,1.502,5.545,2.471l0.013,0.075
		c4.432,1.976,9.709,4.319,13.086,5.742c1.984,0.837,3.894,1.377,3.894,1.377l0.147,0.019c0.758,0.091,1.5,0.135,2.226,0.135
		c3.547,0,6.684-1.057,9.592-3.233c3.076-2.3,5.522-5.577,7.446-9.07c1.938-3.521,3.347-7.264,4.332-10.454l0.548-1.77l-1.779,0.514
		c-1.741,0.502-3.428,0.757-5.008,0.757c-1.349,0-2.642-0.188-3.843-0.557l-1.258-0.392c-1.955-0.608-16.54-4.994-28.121-6.692
		c-0.604-0.088-1.19-0.176-1.764-0.264L64.111,58.464z"/>
	<path fill="#165DF0" d="M232.812,107.341c-1.03-1.968-2.231-3.853-3.574-5.602c-3.022-3.943-6.891-7.435-11.491-10.378
		c-0.156-0.118-0.31-0.217-0.464-0.331l-2.762,8.331c-0.303,0.912-1.013,1.643-1.854,1.909c-1.754,0.552-3.393,0.917-4.924,1.123
		c-4.631,0.621-8.27-0.221-11.115-1.777c-5.339-2.921-7.877-8.347-8.924-11.35c0,0-0.732-1.987-0.562-3.439
		c0.047-0.397,0.289-0.761,0.545-1.088l2.342-2.996c-2.938-0.512-5.838-0.778-8.653-0.778c-20.917,0-37.944,13.736-58.636,35.899
		c-0.979,1.05-1.927,2.038-2.849,2.981c-2.96,3.025-5.623,5.509-8.021,7.558c-0.436,0.181-1.128,0.675-2.164,1.597c-9,8-27,4-27,4
		l-0.135,0.027l-1.927-0.832c-14.504-6.269-24.438-20.591-28.736-41.421c-0.479-2.333-0.894-4.767-1.235-7.258
		c-0.066-0.487-0.127-0.981-0.188-1.474c-0.036-0.288-0.077-0.574-0.109-0.864c-0.021-0.164-0.018-0.326-0.009-0.487
		c0.011-0.194,0.047-0.383,0.095-0.568c-0.507-3.172-1.03-7.91-1.337-14.875c-0.197-4.455-1.014-7.303-1.806-9.065
		c-0.332-0.6-0.845-1.132-1.429-1.61c-3.407-1.015-5.402-1.877-7.368-2.51C34.256,50.69,22.039,48.11,9.679,47.24
		C7,47.055,4.297,45.961,1.647,43.987l-1.521-1.132l-0.078,1.892c-0.104,2.561-0.057,5.45,0.285,8.409
		c0.125,1.088,0.293,2.184,0.508,3.278c0.551,2.798,1.423,5.568,2.74,8.11c0.896,1.728,1.985,3.353,3.336,4.795
		c4.263,4.552,10.666,6.857,19.033,6.857c2.901,0,6.086-0.28,9.463-0.833c0.209-0.035,0.42-0.051,0.629-0.051
		c0.987,0,1.931,0.371,2.653,1.044c0.875,0.815,1.332,2.013,1.222,3.204c-0.035,0.308-0.252,2.205-0.465,5.32
		c-0.648,9.413-1.277,29.964,3.157,51.549c1.328,6.463,2.992,12.471,4.979,18.028c8.268,23.122,22.211,38.392,41.613,45.484
		l0.892,0.326l0.37-0.875c2.615-6.166,3.793-11.405,3.533-15.64c-0.039-0.653-0.108-1.289-0.218-1.895l0.134-0.035
		c-0.959-5.963-3.86-10.71-3.86-10.71l-4.21-5.654c13.984,3.548,15.699,14.419,15.699,14.419c0.83,4.064,0.502,8.523-0.559,13.065
		c-3.172,13.574-12.91,27.894-17.966,34.667l-0.81,1.086l1.274,0.455c4.343,1.547,8.619,2.332,12.711,2.332
		c9.095,0,16.57-3.846,22.224-11.428c0.485-0.65,0.946-1.304,1.41-1.955c10.127-14.24,15.273-28.743,17.552-36.729h0.037
		l0.182-0.787c0.139-0.604,0.992-3.61,4.164-3.61c1.057,0,2.285,0.323,3.65,0.967c2.082,1.339,4.419,2.177,6.602,2.707
		c-0.037-0.023-0.08-0.044-0.117-0.067c-4.898-3.079-6.609-11.075-6.681-11.416c-0.067-0.427-0.21-0.886-0.342-1.152
		c-1.013,0.36-1.414,1.236-1.851,2.404c-0.297,0.795-0.604,1.616-1.453,1.978c-0.471,0.198-1,0.19-1.491-0.023
		c-1.14-0.498-1.655-2.054-1.315-3.963c0.275-1.545,1.823-6.628,10.193-7.13c4.73-0.285,7.591,0.366,8.509,1.927
		c0.419,0.714,0.402,1.558-0.044,2.255c-0.688,1.078-2.262,1.639-4.105,1.456l-0.797-0.079c-0.44-0.045-0.912-0.094-1.299-0.121
		c0.014,0.048,0.026,0.099,0.041,0.15c0.896,3.18,2.588,5.372,5.172,6.701c3.213,1.653,7.192,1.625,10.357,1.188
		c11.412-4.759,22.396-19.173,37.664-43.022c3.842-6.001,7.686-10.842,11.508-14.506c4.936-4.73,9.837-7.5,14.661-8.271
		c0.474-0.075,0.933-0.123,1.377-0.157l1.515-0.115L232.812,107.341z M174.092,156.459c-2.715,3.371-7.648,3.903-11.021,1.188
		c-3.37-2.715-3.902-7.65-1.188-11.021s7.649-3.902,11.021-1.188C176.275,148.153,176.809,153.087,174.092,156.459z"/>
</g>
</svg>
