<?xml version="1.0" standalone="no"?>
<!DOCTYPE svg PUBLIC "-//W3C//DTD SVG 20010904//EN"
 "http://www.w3.org/TR/2001/REC-SVG-20010904/DTD/svg10.dtd">
<svg version="1.0" xmlns="http://www.w3.org/2000/svg"
 width="1116.000000pt" height="1116.000000pt" viewBox="0 0 1116.000000 1116.000000"
 preserveAspectRatio="xMidYMid meet">
<metadata>
Created by potrace 1.11, written by Peter Selinger 2001-2013
</metadata>
<g transform="translate(0.000000,1116.000000) scale(0.100000,-0.100000)"
fill="#000000" stroke="none">
<path d="M8670 10286 c-292 -127 -518 -298 -709 -536 -297 -371 -437 -866
-377 -1336 15 -119 56 -307 69 -320 3 -4 69 17 146 45 77 28 146 51 152 51 13
0 11 11 -21 160 -54 250 -29 549 66 801 72 193 176 351 334 510 150 151 325
267 503 334 58 22 59 14 -8 198 -35 94 -51 127 -64 126 -9 0 -50 -15 -91 -33z"/>
<path d="M8907 9641 c-238 -107 -434 -293 -549 -526 -92 -185 -133 -409 -109
-604 18 -145 30 -191 49 -190 9 0 80 24 157 53 118 44 140 55 138 72 -1 10 -7
57 -13 103 -25 191 46 420 177 576 70 83 191 173 288 214 42 18 69 35 67 43
-11 42 -106 298 -111 298 -3 0 -45 -18 -94 -39z"/>
<path d="M9649 9367 c-15 -12 -90 -103 -166 -202 -77 -99 -375 -481 -663 -850
-288 -368 -586 -750 -662 -847 -76 -97 -142 -179 -146 -181 -4 -2 -68 7 -142
20 -115 21 -168 25 -360 26 -194 1 -243 -2 -355 -22 -443 -79 -844 -273 -1283
-623 -241 -193 -392 -336 -821 -777 -141 -145 -296 -298 -346 -341 -258 -221
-479 -345 -688 -386 -100 -20 -153 -14 -300 32 -523 165 -894 606 -1092 1297
-36 127 -95 392 -95 428 0 21 0 21 28 3 100 -68 362 -218 497 -284 203 -101
308 -136 451 -151 568 -59 1016 393 1230 1241 25 96 47 209 51 250 l6 76 -32
27 c-43 36 -68 34 -128 -7 -82 -56 -214 -123 -287 -145 -107 -33 -165 -28
-355 29 -578 172 -1077 271 -1399 275 -171 3 -174 3 -200 29 -99 94 -404 210
-728 275 -216 43 -532 87 -826 115 -239 22 -260 26 -309 52 -72 39 -199 161
-268 259 -43 60 -65 82 -89 89 -39 11 -74 -2 -97 -37 -41 -63 -81 -441 -72
-677 18 -452 146 -786 388 -1015 118 -111 237 -180 399 -233 183 -60 239 -67
529 -67 l263 0 -6 -85 c-3 -47 -9 -245 -12 -440 -18 -1009 122 -1887 418
-2625 352 -873 934 -1482 1698 -1775 134 -51 129 -33 48 -173 -154 -262 -276
-445 -445 -661 -78 -100 -93 -126 -93 -156 0 -55 25 -79 134 -130 499 -235
1043 -237 1436 -4 210 123 351 269 561 579 52 76 56 80 89 78 19 -1 184 -5
365 -9 575 -12 910 19 1315 121 436 110 812 268 1182 497 921 570 1509 1428
1672 2438 61 373 61 645 0 950 -101 505 -398 934 -849 1225 -47 31 -85 62 -82
68 2 7 61 185 131 397 70 212 244 737 387 1167 142 431 259 794 259 808 0 65
-89 97 -141 52z m-175 -444 c-60 -92 -493 -769 -519 -812 -7 -12 2 -13 53 -9
42 4 80 17 129 42 60 32 93 55 216 156 l30 25 -13 -25 c-26 -51 -113 -161
-158 -200 -76 -68 -177 -112 -272 -119 l-81 -6 -219 -330 c-198 -300 -216
-331 -197 -336 12 -3 72 -12 133 -19 87 -10 125 -11 170 -2 87 18 195 74 264
140 33 32 60 56 60 54 0 -1 -12 -26 -26 -55 -66 -131 -164 -221 -282 -258 -53
-16 -107 -22 -262 -28 -173 -6 -200 -9 -242 -29 -85 -42 -163 -150 -202 -281
-20 -69 -21 -185 -1 -241 8 -24 13 -45 11 -48 -12 -11 -85 61 -111 110 -26 45
-30 64 -30 128 0 133 -30 87 525 815 218 285 532 699 888 1168 79 103 146 187
149 187 3 0 -3 -12 -13 -27z m186 -3266 c35 -12 35 -12 53 -112 23 -129 33
-445 19 -585 -17 -163 -34 -260 -43 -254 -5 3 -9 15 -9 27 0 92 -102 373 -159
437 l-22 25 6 -28 c30 -142 38 -247 38 -517 1 -157 -5 -352 -12 -433 -12 -147
-13 -150 -67 -275 -75 -172 -162 -337 -242 -457 -65 -98 -260 -340 -268 -332
-2 2 9 35 24 73 123 298 217 709 256 1114 18 189 30 417 22 409 -3 -3 -31 -97
-62 -210 -106 -388 -251 -799 -407 -1154 -125 -286 -340 -705 -376 -732 -132
-104 -443 -291 -631 -381 -182 -86 -563 -232 -576 -220 -2 2 34 30 79 63 243
175 536 451 699 660 203 262 362 547 459 823 10 28 17 52 15 52 -2 0 -53 -66
-114 -147 -405 -542 -834 -945 -1314 -1232 -217 -129 -553 -272 -766 -326
-206 -51 -258 -58 -387 -51 -121 7 -254 21 -260 28 -2 2 23 55 55 119 122 239
266 594 341 839 13 41 26 78 29 83 3 4 55 -2 116 -13 172 -32 325 -42 452 -30
133 12 281 48 359 87 318 158 469 267 698 504 258 269 500 595 925 1249 267
411 417 598 598 741 176 141 349 198 472 156z m-2746 -1203 c13 -5 12 -10 -5
-37 -23 -38 -24 -78 -5 -115 21 -41 56 -56 116 -49 49 6 51 5 44 -16 -25 -81
-80 -128 -158 -135 -83 -7 -148 33 -181 111 -41 99 13 204 123 237 35 11 47
11 66 4z"/>
<path d="M10905 9155 c-71 -24 -136 -47 -143 -52 -9 -6 -8 -22 7 -73 58 -193
73 -457 36 -650 -86 -460 -371 -844 -775 -1048 -63 -32 -134 -65 -156 -74
l-41 -15 49 -144 c26 -79 50 -150 53 -157 10 -28 260 89 430 203 534 358 842
993 787 1622 -18 205 -71 434 -101 432 -9 0 -74 -20 -146 -44z"/>
<path d="M10240 8941 c-165 -53 -153 -37 -125 -171 70 -336 -108 -694 -422
-846 -40 -20 -73 -38 -73 -42 0 -24 98 -295 108 -299 18 -8 192 81 269 138
242 177 394 418 449 714 23 125 15 335 -18 459 -13 49 -27 91 -33 92 -5 1 -75
-19 -155 -45z"/>
</g>
</svg>
